<?xml version="1.0" encoding="utf-8" ?>
<svg baseProfile="full" height="11in" version="1.1" width="8.5in" xmlns="http://www.w3.org/2000/svg" xmlns:ev="http://www.w3.org/2001/xml-events" xmlns:xlink="http://www.w3.org/1999/xlink"><defs /><text style="font-size:20px; font-family:Arial" x="20" y="30">DISCOVER-Seq Off Targets</text><text style="font-size:14px; font-family:Courier" x="347" y="48">PAM</text><rect fill="#F5F500" height="16" width="16" x="20" y="50" /><text fill="black" style="font-size:15px; font-family:Courier" x="23" y="63">G</text><rect fill="#26A8FF" height="16" width="16" x="36" y="50" /><text fill="black" style="font-size:15px; font-family:Courier" x="39" y="63">C</text><rect fill="#00D118" height="16" width="16" x="52" y="50" /><text fill="black" style="font-size:15px; font-family:Courier" x="55" y="63">T</text><rect fill="#F5F500" height="16" width="16" x="68" y="50" /><text fill="black" style="font-size:15px; font-family:Courier" x="71" y="63">G</text><rect fill="#26A8FF" height="16" width="16" x="84" y="50" /><text fill="black" style="font-size:15px; font-family:Courier" x="87" y="63">C</text><rect fill="#FF5454" height="16" width="16" x="100" y="50" /><text fill="black" style="font-size:15px; font-family:Courier" x="103" y="63">A</text><rect fill="#F5F500" height="16" width="16" x="116" y="50" /><text fill="black" style="font-size:15px; font-family:Courier" x="119" y="63">G</text><rect fill="#FF5454" height="16" width="16" x="132" y="50" /><text fill="black" style="font-size:15px; font-family:Courier" x="135" y="63">A</text><rect fill="#FF5454" height="16" width="16" x="148" y="50" /><text fill="black" style="font-size:15px; font-family:Courier" x="151" y="63">A</text><rect fill="#F5F500" height="16" width="16" x="164" y="50" /><text fill="black" style="font-size:15px; font-family:Courier" x="167" y="63">G</text><rect fill="#F5F500" height="16" width="16" x="180" y="50" /><text fill="black" style="font-size:15px; font-family:Courier" x="183" y="63">G</text><rect fill="#F5F500" height="16" width="16" x="196" y="50" /><text fill="black" style="font-size:15px; font-family:Courier" x="199" y="63">G</text><rect fill="#FF5454" height="16" width="16" x="212" y="50" /><text fill="black" style="font-size:15px; font-family:Courier" x="215" y="63">A</text><rect fill="#00D118" height="16" width="16" x="228" y="50" /><text fill="black" style="font-size:15px; font-family:Courier" x="231" y="63">T</text><rect fill="#00D118" height="16" width="16" x="244" y="50" /><text fill="black" style="font-size:15px; font-family:Courier" x="247" y="63">T</text><rect fill="#26A8FF" height="16" width="16" x="260" y="50" /><text fill="black" style="font-size:15px; font-family:Courier" x="263" y="63">C</text><rect fill="#26A8FF" height="16" width="16" x="276" y="50" /><text fill="black" style="font-size:15px; font-family:Courier" x="279" y="63">C</text><rect fill="#FF5454" height="16" width="16" x="292" y="50" /><text fill="black" style="font-size:15px; font-family:Courier" x="295" y="63">A</text><rect fill="#00D118" height="16" width="16" x="308" y="50" /><text fill="black" style="font-size:15px; font-family:Courier" x="311" y="63">T</text><rect fill="#F5F500" height="16" width="16" x="324" y="50" /><text fill="black" style="font-size:15px; font-family:Courier" x="327" y="63">G</text><rect fill="#B3B3B3" height="16" width="16" x="340" y="50" /><text fill="black" style="font-size:15px; font-family:Courier" x="343" y="63">N</text><rect fill="#F5F500" height="16" width="16" x="356" y="50" /><text fill="black" style="font-size:15px; font-family:Courier" x="359" y="63">G</text><rect fill="#F5F500" height="16" width="16" x="372" y="50" /><text fill="black" style="font-size:15px; font-family:Courier" x="375" y="63">G</text><text style="font-size:15px; font-family:Arial" x="396.0" y="56">DISCO</text><text style="font-size:15px; font-family:Arial" x="396.0" y="71">Score</text><text style="font-size:15px; font-family:Arial" x="456.0" y="71">Mismatches</text><text style="font-size:15px; font-family:Arial" x="559.2" y="71">Coordinates</text><text fill="black" style="font-size:10px; font-family:Courier" x="24.5" y="88">•</text><text fill="black" style="font-size:10px; font-family:Courier" x="40.5" y="88">•</text><text fill="black" style="font-size:10px; font-family:Courier" x="56.5" y="88">•</text><text fill="black" style="font-size:10px; font-family:Courier" x="72.5" y="88">•</text><text fill="black" style="font-size:10px; font-family:Courier" x="88.5" y="88">•</text><text fill="black" style="font-size:10px; font-family:Courier" x="104.5" y="88">•</text><text fill="black" style="font-size:10px; font-family:Courier" x="120.5" y="88">•</text><text fill="black" style="font-size:10px; font-family:Courier" x="136.5" y="88">•</text><text fill="black" style="font-size:10px; font-family:Courier" x="152.5" y="88">•</text><text fill="black" style="font-size:10px; font-family:Courier" x="168.5" y="88">•</text><text fill="black" style="font-size:10px; font-family:Courier" x="184.5" y="88">•</text><text fill="black" style="font-size:10px; font-family:Courier" x="200.5" y="88">•</text><text fill="black" style="font-size:10px; font-family:Courier" x="216.5" y="88">•</text><text fill="black" style="font-size:10px; font-family:Courier" x="232.5" y="88">•</text><text fill="black" style="font-size:10px; font-family:Courier" x="248.5" y="88">•</text><text fill="black" style="font-size:10px; font-family:Courier" x="264.5" y="88">•</text><text fill="black" style="font-size:10px; font-family:Courier" x="280.5" y="88">•</text><text fill="black" style="font-size:10px; font-family:Courier" x="296.5" y="88">•</text><text fill="black" style="font-size:10px; font-family:Courier" x="312.5" y="88">•</text><text fill="black" style="font-size:10px; font-family:Courier" x="328.5" y="88">•</text><text fill="black" style="font-size:10px; font-family:Courier" x="344.5" y="88">•</text><text fill="black" style="font-size:10px; font-family:Courier" x="360.5" y="88">•</text><text fill="black" style="font-size:10px; font-family:Courier" x="376.5" y="88">•</text><text fill="red" style="font-size:14px; font-family:Arial" x="400" y="90">989</text><text fill="red" style="font-size:14px; font-family:Arial" x="468.0" y="90">Target</text><text fill="red" style="font-size:14px; font-family:courier" x="560" y="90">chr11:22647338-22647357</text><text fill="black" style="font-size:10px; font-family:Courier" x="24.5" y="104">•</text><text fill="black" style="font-size:10px; font-family:Courier" x="40.5" y="104">•</text><text fill="black" style="font-size:10px; font-family:Courier" x="56.5" y="104">•</text><text fill="black" style="font-size:10px; font-family:Courier" x="72.5" y="104">•</text><text fill="black" style="font-size:10px; font-family:Courier" x="88.5" y="104">•</text><text fill="black" style="font-size:10px; font-family:Courier" x="104.5" y="104">•</text><text fill="black" style="font-size:10px; font-family:Courier" x="120.5" y="104">•</text><text fill="black" style="font-size:10px; font-family:Courier" x="136.5" y="104">•</text><text fill="black" style="font-size:10px; font-family:Courier" x="152.5" y="104">•</text><text fill="black" style="font-size:10px; font-family:Courier" x="168.5" y="104">•</text><text fill="black" style="font-size:10px; font-family:Courier" x="184.5" y="104">•</text><text fill="black" style="font-size:10px; font-family:Courier" x="200.5" y="104">•</text><text fill="black" style="font-size:10px; font-family:Courier" x="216.5" y="104">•</text><text fill="black" style="font-size:10px; font-family:Courier" x="232.5" y="104">•</text><text fill="black" style="font-size:10px; font-family:Courier" x="248.5" y="104">•</text><text fill="black" style="font-size:10px; font-family:Courier" x="264.5" y="104">•</text><text fill="black" style="font-size:10px; font-family:Courier" x="280.5" y="104">•</text><text fill="black" style="font-size:10px; font-family:Courier" x="296.5" y="104">•</text><rect fill="#FF5454" height="16" width="16" x="308" y="92" /><text fill="black" style="font-size:15px; font-family:Courier" x="311" y="105">A</text><text fill="black" style="font-size:10px; font-family:Courier" x="328.5" y="104">•</text><text fill="black" style="font-size:10px; font-family:Courier" x="344.5" y="104">•</text><text fill="black" style="font-size:10px; font-family:Courier" x="360.5" y="104">•</text><text fill="black" style="font-size:10px; font-family:Courier" x="376.5" y="104">•</text><text fill="black" style="font-size:14px; font-family:Arial" x="400" y="106">226</text><text fill="black" style="font-size:14px; font-family:Arial" x="480" y="106">1</text><text fill="black" style="font-size:14px; font-family:courier" x="560" y="106">chr22:36952998-36953017</text><text fill="black" style="font-size:10px; font-family:Courier" x="24.5" y="120">•</text><rect fill="#FF5454" height="16" width="16" x="36" y="108" /><text fill="black" style="font-size:15px; font-family:Courier" x="39" y="121">A</text><rect fill="#26A8FF" height="16" width="16" x="52" y="108" /><text fill="black" style="font-size:15px; font-family:Courier" x="55" y="121">C</text><text fill="black" style="font-size:10px; font-family:Courier" x="72.5" y="120">•</text><text fill="black" style="font-size:10px; font-family:Courier" x="88.5" y="120">•</text><text fill="black" style="font-size:10px; font-family:Courier" x="104.5" y="120">•</text><text fill="black" style="font-size:10px; font-family:Courier" x="120.5" y="120">•</text><text fill="black" style="font-size:10px; font-family:Courier" x="136.5" y="120">•</text><text fill="black" style="font-size:10px; font-family:Courier" x="152.5" y="120">•</text><text fill="black" style="font-size:10px; font-family:Courier" x="168.5" y="120">•</text><text fill="black" style="font-size:10px; font-family:Courier" x="184.5" y="120">•</text><text fill="black" style="font-size:10px; font-family:Courier" x="200.5" y="120">•</text><text fill="black" style="font-size:10px; font-family:Courier" x="216.5" y="120">•</text><rect fill="#26A8FF" height="16" width="16" x="228" y="108" /><text fill="black" style="font-size:15px; font-family:Courier" x="231" y="121">C</text><text fill="black" style="font-size:10px; font-family:Courier" x="248.5" y="120">•</text><text fill="black" style="font-size:10px; font-family:Courier" x="264.5" y="120">•</text><text fill="black" style="font-size:10px; font-family:Courier" x="280.5" y="120">•</text><text fill="black" style="font-size:10px; font-family:Courier" x="296.5" y="120">•</text><text fill="black" style="font-size:10px; font-family:Courier" x="312.5" y="120">•</text><text fill="black" style="font-size:10px; font-family:Courier" x="328.5" y="120">•</text><text fill="black" style="font-size:10px; font-family:Courier" x="344.5" y="120">•</text><text fill="black" style="font-size:10px; font-family:Courier" x="360.5" y="120">•</text><text fill="black" style="font-size:10px; font-family:Courier" x="376.5" y="120">•</text><text fill="black" style="font-size:14px; font-family:Arial" x="400" y="122">120</text><text fill="black" style="font-size:14px; font-family:Arial" x="480" y="122">3</text><text fill="black" style="font-size:14px; font-family:courier" x="560" y="122">chr6:27732625-27732644</text><text fill="black" style="font-size:10px; font-family:Courier" x="24.5" y="136">•</text><rect fill="#F5F500" height="16" width="16" x="36" y="124" /><text fill="black" style="font-size:15px; font-family:Courier" x="39" y="137">G</text><text fill="black" style="font-size:10px; font-family:Courier" x="56.5" y="136">•</text><rect fill="#FF5454" height="16" width="16" x="68" y="124" /><text fill="black" style="font-size:15px; font-family:Courier" x="71" y="137">A</text><text fill="black" style="font-size:10px; font-family:Courier" x="88.5" y="136">•</text><text fill="black" style="font-size:10px; font-family:Courier" x="104.5" y="136">•</text><text fill="black" style="font-size:10px; font-family:Courier" x="120.5" y="136">•</text><text fill="black" style="font-size:10px; font-family:Courier" x="136.5" y="136">•</text><text fill="black" style="font-size:10px; font-family:Courier" x="152.5" y="136">•</text><text fill="black" style="font-size:10px; font-family:Courier" x="168.5" y="136">•</text><text fill="black" style="font-size:10px; font-family:Courier" x="184.5" y="136">•</text><text fill="black" style="font-size:10px; font-family:Courier" x="200.5" y="136">•</text><rect fill="#26A8FF" height="16" width="16" x="212" y="124" /><text fill="black" style="font-size:15px; font-family:Courier" x="215" y="137">C</text><text fill="black" style="font-size:10px; font-family:Courier" x="232.5" y="136">•</text><text fill="black" style="font-size:10px; font-family:Courier" x="248.5" y="136">•</text><text fill="black" style="font-size:10px; font-family:Courier" x="264.5" y="136">•</text><text fill="black" style="font-size:10px; font-family:Courier" x="280.5" y="136">•</text><text fill="black" style="font-size:10px; font-family:Courier" x="296.5" y="136">•</text><text fill="black" style="font-size:10px; font-family:Courier" x="312.5" y="136">•</text><text fill="black" style="font-size:10px; font-family:Courier" x="328.5" y="136">•</text><text fill="black" style="font-size:10px; font-family:Courier" x="344.5" y="136">•</text><text fill="black" style="font-size:10px; font-family:Courier" x="360.5" y="136">•</text><text fill="black" style="font-size:10px; font-family:Courier" x="376.5" y="136">•</text><text fill="black" style="font-size:14px; font-family:Arial" x="400" y="138">47</text><text fill="black" style="font-size:14px; font-family:Arial" x="480" y="138">3</text><text fill="black" style="font-size:14px; font-family:courier" x="560" y="138">chr17:57498749-57498768</text><text fill="black" style="font-size:10px; font-family:Courier" x="24.5" y="152">•</text><text fill="black" style="font-size:10px; font-family:Courier" x="40.5" y="152">•</text><text fill="black" style="font-size:10px; font-family:Courier" x="56.5" y="152">•</text><text fill="black" style="font-size:10px; font-family:Courier" x="72.5" y="152">•</text><rect fill="#F5F500" height="16" width="16" x="84" y="140" /><text fill="black" style="font-size:15px; font-family:Courier" x="87" y="153">G</text><text fill="black" style="font-size:10px; font-family:Courier" x="104.5" y="152">•</text><text fill="black" style="font-size:10px; font-family:Courier" x="120.5" y="152">•</text><rect fill="#F5F500" height="16" width="16" x="132" y="140" /><text fill="black" style="font-size:15px; font-family:Courier" x="135" y="153">G</text><text fill="black" style="font-size:10px; font-family:Courier" x="152.5" y="152">•</text><rect fill="#FF5454" height="16" width="16" x="164" y="140" /><text fill="black" style="font-size:15px; font-family:Courier" x="167" y="153">A</text><text fill="black" style="font-size:10px; font-family:Courier" x="184.5" y="152">•</text><text fill="black" style="font-size:10px; font-family:Courier" x="200.5" y="152">•</text><text fill="black" style="font-size:10px; font-family:Courier" x="216.5" y="152">•</text><text fill="black" style="font-size:10px; font-family:Courier" x="232.5" y="152">•</text><text fill="black" style="font-size:10px; font-family:Courier" x="248.5" y="152">•</text><text fill="black" style="font-size:10px; font-family:Courier" x="264.5" y="152">•</text><text fill="black" style="font-size:10px; font-family:Courier" x="280.5" y="152">•</text><text fill="black" style="font-size:10px; font-family:Courier" x="296.5" y="152">•</text><text fill="black" style="font-size:10px; font-family:Courier" x="312.5" y="152">•</text><text fill="black" style="font-size:10px; font-family:Courier" x="328.5" y="152">•</text><text fill="black" style="font-size:10px; font-family:Courier" x="344.5" y="152">•</text><text fill="black" style="font-size:10px; font-family:Courier" x="360.5" y="152">•</text><text fill="black" style="font-size:10px; font-family:Courier" x="376.5" y="152">•</text><text fill="black" style="font-size:14px; font-family:Arial" x="400" y="154">28</text><text fill="black" style="font-size:14px; font-family:Arial" x="480" y="154">3</text><text fill="black" style="font-size:14px; font-family:courier" x="560" y="154">chr11:43946404-43946423</text><text fill="black" style="font-size:10px; font-family:Courier" x="24.5" y="168">•</text><text fill="black" style="font-size:10px; font-family:Courier" x="40.5" y="168">•</text><text fill="black" style="font-size:10px; font-family:Courier" x="56.5" y="168">•</text><text fill="black" style="font-size:10px; font-family:Courier" x="72.5" y="168">•</text><text fill="black" style="font-size:10px; font-family:Courier" x="88.5" y="168">•</text><text fill="black" style="font-size:10px; font-family:Courier" x="104.5" y="168">•</text><rect fill="#FF5454" height="16" width="16" x="116" y="156" /><text fill="black" style="font-size:15px; font-family:Courier" x="119" y="169">A</text><text fill="black" style="font-size:10px; font-family:Courier" x="136.5" y="168">•</text><text fill="black" style="font-size:10px; font-family:Courier" x="152.5" y="168">•</text><rect fill="#FF5454" height="16" width="16" x="164" y="156" /><text fill="black" style="font-size:15px; font-family:Courier" x="167" y="169">A</text><text fill="black" style="font-size:10px; font-family:Courier" x="184.5" y="168">•</text><text fill="black" style="font-size:10px; font-family:Courier" x="200.5" y="168">•</text><text fill="black" style="font-size:10px; font-family:Courier" x="216.5" y="168">•</text><text fill="black" style="font-size:10px; font-family:Courier" x="232.5" y="168">•</text><text fill="black" style="font-size:10px; font-family:Courier" x="248.5" y="168">•</text><text fill="black" style="font-size:10px; font-family:Courier" x="264.5" y="168">•</text><text fill="black" style="font-size:10px; font-family:Courier" x="280.5" y="168">•</text><text fill="black" style="font-size:10px; font-family:Courier" x="296.5" y="168">•</text><rect fill="#F5F500" height="16" width="16" x="308" y="156" /><text fill="black" style="font-size:15px; font-family:Courier" x="311" y="169">G</text><text fill="black" style="font-size:10px; font-family:Courier" x="328.5" y="168">•</text><text fill="black" style="font-size:10px; font-family:Courier" x="344.5" y="168">•</text><text fill="black" style="font-size:10px; font-family:Courier" x="360.5" y="168">•</text><text fill="black" style="font-size:10px; font-family:Courier" x="376.5" y="168">•</text><text fill="black" style="font-size:14px; font-family:Arial" x="400" y="170">21</text><text fill="black" style="font-size:14px; font-family:Arial" x="480" y="170">3</text><text fill="black" style="font-size:14px; font-family:courier" x="560" y="170">chr3:15211551-15211570</text><rect fill="#00D118" height="16" width="16" x="20" y="172" /><text fill="black" style="font-size:15px; font-family:Courier" x="23" y="185">T</text><rect fill="#F5F500" height="16" width="16" x="36" y="172" /><text fill="black" style="font-size:15px; font-family:Courier" x="39" y="185">G</text><text fill="black" style="font-size:10px; font-family:Courier" x="56.5" y="184">•</text><text fill="black" style="font-size:10px; font-family:Courier" x="72.5" y="184">•</text><rect fill="#FF5454" height="16" width="16" x="84" y="172" /><text fill="black" style="font-size:15px; font-family:Courier" x="87" y="185">A</text><text fill="black" style="font-size:10px; font-family:Courier" x="104.5" y="184">•</text><text fill="black" style="font-size:10px; font-family:Courier" x="120.5" y="184">•</text><text fill="black" style="font-size:10px; font-family:Courier" x="136.5" y="184">•</text><text fill="black" style="font-size:10px; font-family:Courier" x="152.5" y="184">•</text><text fill="black" style="font-size:10px; font-family:Courier" x="168.5" y="184">•</text><text fill="black" style="font-size:10px; font-family:Courier" x="184.5" y="184">•</text><text fill="black" style="font-size:10px; font-family:Courier" x="200.5" y="184">•</text><rect fill="#00D118" height="16" width="16" x="212" y="172" /><text fill="black" style="font-size:15px; font-family:Courier" x="215" y="185">T</text><text fill="black" style="font-size:10px; font-family:Courier" x="232.5" y="184">•</text><text fill="black" style="font-size:10px; font-family:Courier" x="248.5" y="184">•</text><text fill="black" style="font-size:10px; font-family:Courier" x="264.5" y="184">•</text><text fill="black" style="font-size:10px; font-family:Courier" x="280.5" y="184">•</text><text fill="black" style="font-size:10px; font-family:Courier" x="296.5" y="184">•</text><text fill="black" style="font-size:10px; font-family:Courier" x="312.5" y="184">•</text><text fill="black" style="font-size:10px; font-family:Courier" x="328.5" y="184">•</text><text fill="black" style="font-size:10px; font-family:Courier" x="344.5" y="184">•</text><text fill="black" style="font-size:10px; font-family:Courier" x="360.5" y="184">•</text><text fill="black" style="font-size:10px; font-family:Courier" x="376.5" y="184">•</text><text fill="black" style="font-size:14px; font-family:Arial" x="400" y="186">14</text><text fill="black" style="font-size:14px; font-family:Arial" x="480" y="186">4</text><text fill="black" style="font-size:14px; font-family:courier" x="560" y="186">chr11:66609706-66609725</text><text fill="black" style="font-size:10px; font-family:Courier" x="24.5" y="200">•</text><text fill="black" style="font-size:10px; font-family:Courier" x="40.5" y="200">•</text><text fill="black" style="font-size:10px; font-family:Courier" x="56.5" y="200">•</text><text fill="black" style="font-size:10px; font-family:Courier" x="72.5" y="200">•</text><text fill="black" style="font-size:10px; font-family:Courier" x="88.5" y="200">•</text><rect fill="#00D118" height="16" width="16" x="100" y="188" /><text fill="black" style="font-size:15px; font-family:Courier" x="103" y="201">T</text><text fill="black" style="font-size:10px; font-family:Courier" x="120.5" y="200">•</text><text fill="black" style="font-size:10px; font-family:Courier" x="136.5" y="200">•</text><text fill="black" style="font-size:10px; font-family:Courier" x="152.5" y="200">•</text><rect fill="#26A8FF" height="16" width="16" x="164" y="188" /><text fill="black" style="font-size:15px; font-family:Courier" x="167" y="201">C</text><rect fill="#FF5454" height="16" width="16" x="180" y="188" /><text fill="black" style="font-size:15px; font-family:Courier" x="183" y="201">A</text><text fill="black" style="font-size:10px; font-family:Courier" x="200.5" y="200">•</text><text fill="black" style="font-size:10px; font-family:Courier" x="216.5" y="200">•</text><text fill="black" style="font-size:10px; font-family:Courier" x="232.5" y="200">•</text><text fill="black" style="font-size:10px; font-family:Courier" x="248.5" y="200">•</text><text fill="black" style="font-size:10px; font-family:Courier" x="264.5" y="200">•</text><text fill="black" style="font-size:10px; font-family:Courier" x="280.5" y="200">•</text><text fill="black" style="font-size:10px; font-family:Courier" x="296.5" y="200">•</text><text fill="black" style="font-size:10px; font-family:Courier" x="312.5" y="200">•</text><text fill="black" style="font-size:10px; font-family:Courier" x="328.5" y="200">•</text><text fill="black" style="font-size:10px; font-family:Courier" x="344.5" y="200">•</text><text fill="black" style="font-size:10px; font-family:Courier" x="360.5" y="200">•</text><text fill="black" style="font-size:10px; font-family:Courier" x="376.5" y="200">•</text><text fill="black" style="font-size:14px; font-family:Arial" x="400" y="202">6</text><text fill="black" style="font-size:14px; font-family:Arial" x="480" y="202">3</text><text fill="black" style="font-size:14px; font-family:courier" x="560" y="202">chr3:65846355-65846374</text><text fill="black" style="font-size:10px; font-family:Courier" x="24.5" y="216">•</text><rect fill="#00D118" height="16" width="16" x="36" y="204" /><text fill="black" style="font-size:15px; font-family:Courier" x="39" y="217">T</text><text fill="black" style="font-size:10px; font-family:Courier" x="56.5" y="216">•</text><text fill="black" style="font-size:10px; font-family:Courier" x="72.5" y="216">•</text><text fill="black" style="font-size:10px; font-family:Courier" x="88.5" y="216">•</text><text fill="black" style="font-size:10px; font-family:Courier" x="104.5" y="216">•</text><text fill="black" style="font-size:10px; font-family:Courier" x="120.5" y="216">•</text><rect fill="#26A8FF" height="16" width="16" x="132" y="204" /><text fill="black" style="font-size:15px; font-family:Courier" x="135" y="217">C</text><text fill="black" style="font-size:10px; font-family:Courier" x="152.5" y="216">•</text><rect fill="#FF5454" height="16" width="16" x="164" y="204" /><text fill="black" style="font-size:15px; font-family:Courier" x="167" y="217">A</text><text fill="black" style="font-size:10px; font-family:Courier" x="184.5" y="216">•</text><rect fill="#FF5454" height="16" width="16" x="196" y="204" /><text fill="black" style="font-size:15px; font-family:Courier" x="199" y="217">A</text><text fill="black" style="font-size:10px; font-family:Courier" x="216.5" y="216">•</text><text fill="black" style="font-size:10px; font-family:Courier" x="232.5" y="216">•</text><text fill="black" style="font-size:10px; font-family:Courier" x="248.5" y="216">•</text><text fill="black" style="font-size:10px; font-family:Courier" x="264.5" y="216">•</text><text fill="black" style="font-size:10px; font-family:Courier" x="280.5" y="216">•</text><text fill="black" style="font-size:10px; font-family:Courier" x="296.5" y="216">•</text><text fill="black" style="font-size:10px; font-family:Courier" x="312.5" y="216">•</text><text fill="black" style="font-size:10px; font-family:Courier" x="328.5" y="216">•</text><text fill="black" style="font-size:10px; font-family:Courier" x="344.5" y="216">•</text><text fill="black" style="font-size:10px; font-family:Courier" x="360.5" y="216">•</text><text fill="black" style="font-size:10px; font-family:Courier" x="376.5" y="216">•</text><text fill="black" style="font-size:14px; font-family:Arial" x="400" y="218">5</text><text fill="black" style="font-size:14px; font-family:Arial" x="480" y="218">4</text><text fill="black" style="font-size:14px; font-family:courier" x="560" y="218">chr6:136791397-136791416</text><text fill="black" style="font-size:10px; font-family:Courier" x="24.5" y="232">•</text><text fill="black" style="font-size:10px; font-family:Courier" x="40.5" y="232">•</text><text fill="black" style="font-size:10px; font-family:Courier" x="56.5" y="232">•</text><text fill="black" style="font-size:10px; font-family:Courier" x="72.5" y="232">•</text><rect fill="#FF5454" height="16" width="16" x="84" y="220" /><text fill="black" style="font-size:15px; font-family:Courier" x="87" y="233">A</text><text fill="black" style="font-size:10px; font-family:Courier" x="104.5" y="232">•</text><text fill="black" style="font-size:10px; font-family:Courier" x="120.5" y="232">•</text><text fill="black" style="font-size:10px; font-family:Courier" x="136.5" y="232">•</text><text fill="black" style="font-size:10px; font-family:Courier" x="152.5" y="232">•</text><text fill="black" style="font-size:10px; font-family:Courier" x="168.5" y="232">•</text><text fill="black" style="font-size:10px; font-family:Courier" x="184.5" y="232">•</text><rect fill="#FF5454" height="16" width="16" x="196" y="220" /><text fill="black" style="font-size:15px; font-family:Courier" x="199" y="233">A</text><text fill="black" style="font-size:10px; font-family:Courier" x="216.5" y="232">•</text><text fill="black" style="font-size:10px; font-family:Courier" x="232.5" y="232">•</text><text fill="black" style="font-size:10px; font-family:Courier" x="248.5" y="232">•</text><rect fill="#00D118" height="16" width="16" x="260" y="220" /><text fill="black" style="font-size:15px; font-family:Courier" x="263" y="233">T</text><text fill="black" style="font-size:10px; font-family:Courier" x="280.5" y="232">•</text><text fill="black" style="font-size:10px; font-family:Courier" x="296.5" y="232">•</text><text fill="black" style="font-size:10px; font-family:Courier" x="312.5" y="232">•</text><text fill="black" style="font-size:10px; font-family:Courier" x="328.5" y="232">•</text><text fill="black" style="font-size:10px; font-family:Courier" x="344.5" y="232">•</text><text fill="black" style="font-size:10px; font-family:Courier" x="360.5" y="232">•</text><text fill="black" style="font-size:10px; font-family:Courier" x="376.5" y="232">•</text><text fill="black" style="font-size:14px; font-family:Arial" x="400" y="234">4</text><text fill="black" style="font-size:14px; font-family:Arial" x="480" y="234">3</text><text fill="black" style="font-size:14px; font-family:courier" x="560" y="234">chr6:134348465-134348484</text><rect fill="#FF5454" height="16" width="16" x="20" y="236" /><text fill="black" style="font-size:15px; font-family:Courier" x="23" y="249">A</text><text fill="black" style="font-size:10px; font-family:Courier" x="40.5" y="248">•</text><text fill="black" style="font-size:10px; font-family:Courier" x="56.5" y="248">•</text><text fill="black" style="font-size:10px; font-family:Courier" x="72.5" y="248">•</text><text fill="black" style="font-size:10px; font-family:Courier" x="88.5" y="248">•</text><rect fill="#00D118" height="16" width="16" x="100" y="236" /><text fill="black" style="font-size:15px; font-family:Courier" x="103" y="249">T</text><text fill="black" style="font-size:10px; font-family:Courier" x="120.5" y="248">•</text><text fill="black" style="font-size:10px; font-family:Courier" x="136.5" y="248">•</text><rect fill="#F5F500" height="16" width="16" x="148" y="236" /><text fill="black" style="font-size:15px; font-family:Courier" x="151" y="249">G</text><rect fill="#FF5454" height="16" width="16" x="164" y="236" /><text fill="black" style="font-size:15px; font-family:Courier" x="167" y="249">A</text><text fill="black" style="font-size:10px; font-family:Courier" x="184.5" y="248">•</text><text fill="black" style="font-size:10px; font-family:Courier" x="200.5" y="248">•</text><text fill="black" style="font-size:10px; font-family:Courier" x="216.5" y="248">•</text><text fill="black" style="font-size:10px; font-family:Courier" x="232.5" y="248">•</text><text fill="black" style="font-size:10px; font-family:Courier" x="248.5" y="248">•</text><text fill="black" style="font-size:10px; font-family:Courier" x="264.5" y="248">•</text><text fill="black" style="font-size:10px; font-family:Courier" x="280.5" y="248">•</text><text fill="black" style="font-size:10px; font-family:Courier" x="296.5" y="248">•</text><text fill="black" style="font-size:10px; font-family:Courier" x="312.5" y="248">•</text><text fill="black" style="font-size:10px; font-family:Courier" x="328.5" y="248">•</text><text fill="black" style="font-size:10px; font-family:Courier" x="344.5" y="248">•</text><text fill="black" style="font-size:10px; font-family:Courier" x="360.5" y="248">•</text><text fill="black" style="font-size:10px; font-family:Courier" x="376.5" y="248">•</text><text fill="black" style="font-size:14px; font-family:Arial" x="400" y="250">4</text><text fill="black" style="font-size:14px; font-family:Arial" x="480" y="250">4</text><text fill="black" style="font-size:14px; font-family:courier" x="560" y="250">chr1:219492750-219492769</text><text fill="black" style="font-size:10px; font-family:Courier" x="24.5" y="264">•</text><rect fill="#FF5454" height="16" width="16" x="36" y="252" /><text fill="black" style="font-size:15px; font-family:Courier" x="39" y="265">A</text><rect fill="#FF5454" height="16" width="16" x="52" y="252" /><text fill="black" style="font-size:15px; font-family:Courier" x="55" y="265">A</text><text fill="black" style="font-size:10px; font-family:Courier" x="72.5" y="264">•</text><text fill="black" style="font-size:10px; font-family:Courier" x="88.5" y="264">•</text><text fill="black" style="font-size:10px; font-family:Courier" x="104.5" y="264">•</text><text fill="black" style="font-size:10px; font-family:Courier" x="120.5" y="264">•</text><text fill="black" style="font-size:10px; font-family:Courier" x="136.5" y="264">•</text><text fill="black" style="font-size:10px; font-family:Courier" x="152.5" y="264">•</text><rect fill="#FF5454" height="16" width="16" x="164" y="252" /><text fill="black" style="font-size:15px; font-family:Courier" x="167" y="265">A</text><text fill="black" style="font-size:10px; font-family:Courier" x="184.5" y="264">•</text><rect fill="#FF5454" height="16" width="16" x="196" y="252" /><text fill="black" style="font-size:15px; font-family:Courier" x="199" y="265">A</text><text fill="black" style="font-size:10px; font-family:Courier" x="216.5" y="264">•</text><text fill="black" style="font-size:10px; font-family:Courier" x="232.5" y="264">•</text><text fill="black" style="font-size:10px; font-family:Courier" x="248.5" y="264">•</text><text fill="black" style="font-size:10px; font-family:Courier" x="264.5" y="264">•</text><text fill="black" style="font-size:10px; font-family:Courier" x="280.5" y="264">•</text><text fill="black" style="font-size:10px; font-family:Courier" x="296.5" y="264">•</text><text fill="black" style="font-size:10px; font-family:Courier" x="312.5" y="264">•</text><text fill="black" style="font-size:10px; font-family:Courier" x="328.5" y="264">•</text><text fill="black" style="font-size:10px; font-family:Courier" x="344.5" y="264">•</text><text fill="black" style="font-size:10px; font-family:Courier" x="360.5" y="264">•</text><text fill="black" style="font-size:10px; font-family:Courier" x="376.5" y="264">•</text><text fill="black" style="font-size:14px; font-family:Arial" x="400" y="266">4</text><text fill="black" style="font-size:14px; font-family:Arial" x="480" y="266">4</text><text fill="black" style="font-size:14px; font-family:courier" x="560" y="266">chr2:102687083-102687102</text><rect fill="#FF5454" height="16" width="16" x="20" y="268" /><text fill="black" style="font-size:15px; font-family:Courier" x="23" y="281">A</text><text fill="black" style="font-size:10px; font-family:Courier" x="40.5" y="280">•</text><text fill="black" style="font-size:10px; font-family:Courier" x="56.5" y="280">•</text><text fill="black" style="font-size:10px; font-family:Courier" x="72.5" y="280">•</text><text fill="black" style="font-size:10px; font-family:Courier" x="88.5" y="280">•</text><text fill="black" style="font-size:10px; font-family:Courier" x="104.5" y="280">•</text><rect fill="#FF5454" height="16" width="16" x="116" y="268" /><text fill="black" style="font-size:15px; font-family:Courier" x="119" y="281">A</text><text fill="black" style="font-size:10px; font-family:Courier" x="136.5" y="280">•</text><text fill="black" style="font-size:10px; font-family:Courier" x="152.5" y="280">•</text><rect fill="#00D118" height="16" width="16" x="164" y="268" /><text fill="black" style="font-size:15px; font-family:Courier" x="167" y="281">T</text><text fill="black" style="font-size:10px; font-family:Courier" x="184.5" y="280">•</text><text fill="black" style="font-size:10px; font-family:Courier" x="200.5" y="280">•</text><text fill="black" style="font-size:10px; font-family:Courier" x="216.5" y="280">•</text><text fill="black" style="font-size:10px; font-family:Courier" x="232.5" y="280">•</text><text fill="black" style="font-size:10px; font-family:Courier" x="248.5" y="280">•</text><text fill="black" style="font-size:10px; font-family:Courier" x="264.5" y="280">•</text><text fill="black" style="font-size:10px; font-family:Courier" x="280.5" y="280">•</text><text fill="black" style="font-size:10px; font-family:Courier" x="296.5" y="280">•</text><text fill="black" style="font-size:10px; font-family:Courier" x="312.5" y="280">•</text><text fill="black" style="font-size:10px; font-family:Courier" x="328.5" y="280">•</text><text fill="black" style="font-size:10px; font-family:Courier" x="344.5" y="280">•</text><text fill="black" style="font-size:10px; font-family:Courier" x="360.5" y="280">•</text><text fill="black" style="font-size:10px; font-family:Courier" x="376.5" y="280">•</text><text fill="black" style="font-size:14px; font-family:Arial" x="400" y="282">3</text><text fill="black" style="font-size:14px; font-family:Arial" x="480" y="282">3</text><text fill="black" style="font-size:14px; font-family:courier" x="560" y="282">chr1:74228696-74228715</text><text fill="black" style="font-size:10px; font-family:Courier" x="24.5" y="296">•</text><text fill="black" style="font-size:10px; font-family:Courier" x="40.5" y="296">•</text><rect fill="#26A8FF" height="16" width="16" x="52" y="284" /><text fill="black" style="font-size:15px; font-family:Courier" x="55" y="297">C</text><rect fill="#FF5454" height="16" width="16" x="68" y="284" /><text fill="black" style="font-size:15px; font-family:Courier" x="71" y="297">A</text><text fill="black" style="font-size:10px; font-family:Courier" x="88.5" y="296">•</text><text fill="black" style="font-size:10px; font-family:Courier" x="104.5" y="296">•</text><text fill="black" style="font-size:10px; font-family:Courier" x="120.5" y="296">•</text><text fill="black" style="font-size:10px; font-family:Courier" x="136.5" y="296">•</text><text fill="black" style="font-size:10px; font-family:Courier" x="152.5" y="296">•</text><text fill="black" style="font-size:10px; font-family:Courier" x="168.5" y="296">•</text><text fill="black" style="font-size:10px; font-family:Courier" x="184.5" y="296">•</text><text fill="black" style="font-size:10px; font-family:Courier" x="200.5" y="296">•</text><text fill="black" style="font-size:10px; font-family:Courier" x="216.5" y="296">•</text><text fill="black" style="font-size:10px; font-family:Courier" x="232.5" y="296">•</text><text fill="black" style="font-size:10px; font-family:Courier" x="248.5" y="296">•</text><text fill="black" style="font-size:10px; font-family:Courier" x="264.5" y="296">•</text><rect fill="#00D118" height="16" width="16" x="276" y="284" /><text fill="black" style="font-size:15px; font-family:Courier" x="279" y="297">T</text><text fill="black" style="font-size:10px; font-family:Courier" x="296.5" y="296">•</text><text fill="black" style="font-size:10px; font-family:Courier" x="312.5" y="296">•</text><text fill="black" style="font-size:10px; font-family:Courier" x="328.5" y="296">•</text><text fill="black" style="font-size:10px; font-family:Courier" x="344.5" y="296">•</text><rect fill="#FF5454" height="16" width="16" x="356" y="284" /><text fill="black" style="font-size:15px; font-family:Courier" x="359" y="297">A</text><text fill="black" style="font-size:10px; font-family:Courier" x="376.5" y="296">•</text><text fill="black" style="font-size:14px; font-family:Arial" x="400" y="298">3</text><text fill="black" style="font-size:14px; font-family:Arial" x="480" y="298">3</text><text fill="black" style="font-size:14px; font-family:courier" x="560" y="298">chr20:43957292-43957311</text><rect fill="#26A8FF" height="16" width="16" x="20" y="300" /><text fill="black" style="font-size:15px; font-family:Courier" x="23" y="313">C</text><rect fill="#FF5454" height="16" width="16" x="36" y="300" /><text fill="black" style="font-size:15px; font-family:Courier" x="39" y="313">A</text><rect fill="#FF5454" height="16" width="16" x="52" y="300" /><text fill="black" style="font-size:15px; font-family:Courier" x="55" y="313">A</text><text fill="black" style="font-size:10px; font-family:Courier" x="72.5" y="312">•</text><text fill="black" style="font-size:10px; font-family:Courier" x="88.5" y="312">•</text><text fill="black" style="font-size:10px; font-family:Courier" x="104.5" y="312">•</text><text fill="black" style="font-size:10px; font-family:Courier" x="120.5" y="312">•</text><text fill="black" style="font-size:10px; font-family:Courier" x="136.5" y="312">•</text><text fill="black" style="font-size:10px; font-family:Courier" x="152.5" y="312">•</text><text fill="black" style="font-size:10px; font-family:Courier" x="168.5" y="312">•</text><text fill="black" style="font-size:10px; font-family:Courier" x="184.5" y="312">•</text><text fill="black" style="font-size:10px; font-family:Courier" x="200.5" y="312">•</text><text fill="black" style="font-size:10px; font-family:Courier" x="216.5" y="312">•</text><text fill="black" style="font-size:10px; font-family:Courier" x="232.5" y="312">•</text><text fill="black" style="font-size:10px; font-family:Courier" x="248.5" y="312">•</text><text fill="black" style="font-size:10px; font-family:Courier" x="264.5" y="312">•</text><text fill="black" style="font-size:10px; font-family:Courier" x="280.5" y="312">•</text><text fill="black" style="font-size:10px; font-family:Courier" x="296.5" y="312">•</text><rect fill="#26A8FF" height="16" width="16" x="308" y="300" /><text fill="black" style="font-size:15px; font-family:Courier" x="311" y="313">C</text><rect fill="#FF5454" height="16" width="16" x="324" y="300" /><text fill="black" style="font-size:15px; font-family:Courier" x="327" y="313">A</text><text fill="black" style="font-size:10px; font-family:Courier" x="344.5" y="312">•</text><text fill="black" style="font-size:10px; font-family:Courier" x="360.5" y="312">•</text><text fill="black" style="font-size:10px; font-family:Courier" x="376.5" y="312">•</text><text fill="black" style="font-size:14px; font-family:Arial" x="400" y="314">3</text><text fill="black" style="font-size:14px; font-family:Arial" x="480" y="314">5</text><text fill="black" style="font-size:14px; font-family:courier" x="560" y="314">chr8:125220704-125220723</text></svg>