<?xml version="1.0" encoding="utf-8" ?>
<svg baseProfile="full" height="11in" version="1.1" width="8.5in" xmlns="http://www.w3.org/2000/svg" xmlns:ev="http://www.w3.org/2001/xml-events" xmlns:xlink="http://www.w3.org/1999/xlink"><defs /><text style="font-size:20px; font-family:Arial" x="20" y="30">DISCOVER-Seq Off Targets</text><text style="font-size:14px; font-family:Courier" x="347" y="48">PAM</text><rect fill="#F5F500" height="16" width="16" x="20" y="50" /><text fill="black" style="font-size:15px; font-family:Courier" x="23" y="63">G</text><rect fill="#F5F500" height="16" width="16" x="36" y="50" /><text fill="black" style="font-size:15px; font-family:Courier" x="39" y="63">G</text><rect fill="#26A8FF" height="16" width="16" x="52" y="50" /><text fill="black" style="font-size:15px; font-family:Courier" x="55" y="63">C</text><rect fill="#FF5454" height="16" width="16" x="68" y="50" /><text fill="black" style="font-size:15px; font-family:Courier" x="71" y="63">A</text><rect fill="#26A8FF" height="16" width="16" x="84" y="50" /><text fill="black" style="font-size:15px; font-family:Courier" x="87" y="63">C</text><rect fill="#00D118" height="16" width="16" x="100" y="50" /><text fill="black" style="font-size:15px; font-family:Courier" x="103" y="63">T</text><rect fill="#F5F500" height="16" width="16" x="116" y="50" /><text fill="black" style="font-size:15px; font-family:Courier" x="119" y="63">G</text><rect fill="#26A8FF" height="16" width="16" x="132" y="50" /><text fill="black" style="font-size:15px; font-family:Courier" x="135" y="63">C</text><rect fill="#F5F500" height="16" width="16" x="148" y="50" /><text fill="black" style="font-size:15px; font-family:Courier" x="151" y="63">G</text><rect fill="#F5F500" height="16" width="16" x="164" y="50" /><text fill="black" style="font-size:15px; font-family:Courier" x="167" y="63">G</text><rect fill="#26A8FF" height="16" width="16" x="180" y="50" /><text fill="black" style="font-size:15px; font-family:Courier" x="183" y="63">C</text><rect fill="#00D118" height="16" width="16" x="196" y="50" /><text fill="black" style="font-size:15px; font-family:Courier" x="199" y="63">T</text><rect fill="#F5F500" height="16" width="16" x="212" y="50" /><text fill="black" style="font-size:15px; font-family:Courier" x="215" y="63">G</text><rect fill="#F5F500" height="16" width="16" x="228" y="50" /><text fill="black" style="font-size:15px; font-family:Courier" x="231" y="63">G</text><rect fill="#FF5454" height="16" width="16" x="244" y="50" /><text fill="black" style="font-size:15px; font-family:Courier" x="247" y="63">A</text><rect fill="#F5F500" height="16" width="16" x="260" y="50" /><text fill="black" style="font-size:15px; font-family:Courier" x="263" y="63">G</text><rect fill="#F5F500" height="16" width="16" x="276" y="50" /><text fill="black" style="font-size:15px; font-family:Courier" x="279" y="63">G</text><rect fill="#00D118" height="16" width="16" x="292" y="50" /><text fill="black" style="font-size:15px; font-family:Courier" x="295" y="63">T</text><rect fill="#F5F500" height="16" width="16" x="308" y="50" /><text fill="black" style="font-size:15px; font-family:Courier" x="311" y="63">G</text><rect fill="#F5F500" height="16" width="16" x="324" y="50" /><text fill="black" style="font-size:15px; font-family:Courier" x="327" y="63">G</text><rect fill="#B3B3B3" height="16" width="16" x="340" y="50" /><text fill="black" style="font-size:15px; font-family:Courier" x="343" y="63">N</text><rect fill="#F5F500" height="16" width="16" x="356" y="50" /><text fill="black" style="font-size:15px; font-family:Courier" x="359" y="63">G</text><rect fill="#F5F500" height="16" width="16" x="372" y="50" /><text fill="black" style="font-size:15px; font-family:Courier" x="375" y="63">G</text><text style="font-size:15px; font-family:Arial" x="396.0" y="56">DISCO</text><text style="font-size:15px; font-family:Arial" x="396.0" y="71">Score</text><text style="font-size:15px; font-family:Arial" x="456.0" y="71">Mismatches</text><text style="font-size:15px; font-family:Arial" x="559.2" y="71">Coordinates</text><text fill="black" style="font-size:10px; font-family:Courier" x="24.5" y="88">•</text><text fill="black" style="font-size:10px; font-family:Courier" x="40.5" y="88">•</text><text fill="black" style="font-size:10px; font-family:Courier" x="56.5" y="88">•</text><text fill="black" style="font-size:10px; font-family:Courier" x="72.5" y="88">•</text><text fill="black" style="font-size:10px; font-family:Courier" x="88.5" y="88">•</text><rect fill="#F5F500" height="16" width="16" x="100" y="76" /><text fill="black" style="font-size:15px; font-family:Courier" x="103" y="89">G</text><rect fill="#FF5454" height="16" width="16" x="116" y="76" /><text fill="black" style="font-size:15px; font-family:Courier" x="119" y="89">A</text><text fill="black" style="font-size:10px; font-family:Courier" x="136.5" y="88">•</text><text fill="black" style="font-size:10px; font-family:Courier" x="152.5" y="88">•</text><text fill="black" style="font-size:10px; font-family:Courier" x="168.5" y="88">•</text><text fill="black" style="font-size:10px; font-family:Courier" x="184.5" y="88">•</text><text fill="black" style="font-size:10px; font-family:Courier" x="200.5" y="88">•</text><text fill="black" style="font-size:10px; font-family:Courier" x="216.5" y="88">•</text><text fill="black" style="font-size:10px; font-family:Courier" x="232.5" y="88">•</text><text fill="black" style="font-size:10px; font-family:Courier" x="248.5" y="88">•</text><text fill="black" style="font-size:10px; font-family:Courier" x="264.5" y="88">•</text><text fill="black" style="font-size:10px; font-family:Courier" x="280.5" y="88">•</text><text fill="black" style="font-size:10px; font-family:Courier" x="296.5" y="88">•</text><text fill="black" style="font-size:10px; font-family:Courier" x="312.5" y="88">•</text><text fill="black" style="font-size:10px; font-family:Courier" x="328.5" y="88">•</text><text fill="black" style="font-size:10px; font-family:Courier" x="344.5" y="88">•</text><text fill="black" style="font-size:10px; font-family:Courier" x="360.5" y="88">•</text><text fill="black" style="font-size:10px; font-family:Courier" x="376.5" y="88">•</text><text fill="black" style="font-size:14px; font-family:Arial" x="400" y="90">104</text><text fill="black" style="font-size:14px; font-family:Arial" x="480" y="90">2</text><text fill="black" style="font-size:14px; font-family:courier" x="560" y="90">chr10:126694858-126694877</text><text fill="black" style="font-size:10px; font-family:Courier" x="24.5" y="104">•</text><text fill="black" style="font-size:10px; font-family:Courier" x="40.5" y="104">•</text><text fill="black" style="font-size:10px; font-family:Courier" x="56.5" y="104">•</text><text fill="black" style="font-size:10px; font-family:Courier" x="72.5" y="104">•</text><text fill="black" style="font-size:10px; font-family:Courier" x="88.5" y="104">•</text><text fill="black" style="font-size:10px; font-family:Courier" x="104.5" y="104">•</text><text fill="black" style="font-size:10px; font-family:Courier" x="120.5" y="104">•</text><text fill="black" style="font-size:10px; font-family:Courier" x="136.5" y="104">•</text><text fill="black" style="font-size:10px; font-family:Courier" x="152.5" y="104">•</text><text fill="black" style="font-size:10px; font-family:Courier" x="168.5" y="104">•</text><text fill="black" style="font-size:10px; font-family:Courier" x="184.5" y="104">•</text><text fill="black" style="font-size:10px; font-family:Courier" x="200.5" y="104">•</text><text fill="black" style="font-size:10px; font-family:Courier" x="216.5" y="104">•</text><text fill="black" style="font-size:10px; font-family:Courier" x="232.5" y="104">•</text><text fill="black" style="font-size:10px; font-family:Courier" x="248.5" y="104">•</text><text fill="black" style="font-size:10px; font-family:Courier" x="264.5" y="104">•</text><text fill="black" style="font-size:10px; font-family:Courier" x="280.5" y="104">•</text><text fill="black" style="font-size:10px; font-family:Courier" x="296.5" y="104">•</text><text fill="black" style="font-size:10px; font-family:Courier" x="312.5" y="104">•</text><text fill="black" style="font-size:10px; font-family:Courier" x="328.5" y="104">•</text><text fill="black" style="font-size:10px; font-family:Courier" x="344.5" y="104">•</text><text fill="black" style="font-size:10px; font-family:Courier" x="360.5" y="104">•</text><text fill="black" style="font-size:10px; font-family:Courier" x="376.5" y="104">•</text><text fill="red" style="font-size:14px; font-family:Arial" x="400" y="106">94</text><text fill="red" style="font-size:14px; font-family:Arial" x="468.0" y="106">Target</text><text fill="red" style="font-size:14px; font-family:courier" x="560" y="106">chr20:31349756-31349775</text><text fill="black" style="font-size:10px; font-family:Courier" x="24.5" y="120">•</text><text fill="black" style="font-size:10px; font-family:Courier" x="40.5" y="120">•</text><text fill="black" style="font-size:10px; font-family:Courier" x="56.5" y="120">•</text><text fill="black" style="font-size:10px; font-family:Courier" x="72.5" y="120">•</text><rect fill="#FF5454" height="16" width="16" x="84" y="108" /><text fill="black" style="font-size:15px; font-family:Courier" x="87" y="121">A</text><text fill="black" style="font-size:10px; font-family:Courier" x="104.5" y="120">•</text><text fill="black" style="font-size:10px; font-family:Courier" x="120.5" y="120">•</text><text fill="black" style="font-size:10px; font-family:Courier" x="136.5" y="120">•</text><text fill="black" style="font-size:10px; font-family:Courier" x="152.5" y="120">•</text><text fill="black" style="font-size:10px; font-family:Courier" x="168.5" y="120">•</text><text fill="black" style="font-size:10px; font-family:Courier" x="184.5" y="120">•</text><text fill="black" style="font-size:10px; font-family:Courier" x="200.5" y="120">•</text><text fill="black" style="font-size:10px; font-family:Courier" x="216.5" y="120">•</text><text fill="black" style="font-size:10px; font-family:Courier" x="232.5" y="120">•</text><text fill="black" style="font-size:10px; font-family:Courier" x="248.5" y="120">•</text><text fill="black" style="font-size:10px; font-family:Courier" x="264.5" y="120">•</text><text fill="black" style="font-size:10px; font-family:Courier" x="280.5" y="120">•</text><rect fill="#26A8FF" height="16" width="16" x="292" y="108" /><text fill="black" style="font-size:15px; font-family:Courier" x="295" y="121">C</text><text fill="black" style="font-size:10px; font-family:Courier" x="312.5" y="120">•</text><text fill="black" style="font-size:10px; font-family:Courier" x="328.5" y="120">•</text><text fill="black" style="font-size:10px; font-family:Courier" x="344.5" y="120">•</text><text fill="black" style="font-size:10px; font-family:Courier" x="360.5" y="120">•</text><text fill="black" style="font-size:10px; font-family:Courier" x="376.5" y="120">•</text><text fill="black" style="font-size:14px; font-family:Arial" x="400" y="122">54</text><text fill="black" style="font-size:14px; font-family:Arial" x="480" y="122">2</text><text fill="black" style="font-size:14px; font-family:courier" x="560" y="122">chr4:56815182-56815201</text><rect fill="#00D118" height="16" width="16" x="20" y="124" /><text fill="black" style="font-size:15px; font-family:Courier" x="23" y="137">T</text><text fill="black" style="font-size:10px; font-family:Courier" x="40.5" y="136">•</text><text fill="black" style="font-size:10px; font-family:Courier" x="56.5" y="136">•</text><text fill="black" style="font-size:10px; font-family:Courier" x="72.5" y="136">•</text><text fill="black" style="font-size:10px; font-family:Courier" x="88.5" y="136">•</text><text fill="black" style="font-size:10px; font-family:Courier" x="104.5" y="136">•</text><text fill="black" style="font-size:10px; font-family:Courier" x="120.5" y="136">•</text><text fill="black" style="font-size:10px; font-family:Courier" x="136.5" y="136">•</text><text fill="black" style="font-size:10px; font-family:Courier" x="152.5" y="136">•</text><text fill="black" style="font-size:10px; font-family:Courier" x="168.5" y="136">•</text><text fill="black" style="font-size:10px; font-family:Courier" x="184.5" y="136">•</text><rect fill="#26A8FF" height="16" width="16" x="196" y="124" /><text fill="black" style="font-size:15px; font-family:Courier" x="199" y="137">C</text><text fill="black" style="font-size:10px; font-family:Courier" x="216.5" y="136">•</text><text fill="black" style="font-size:10px; font-family:Courier" x="232.5" y="136">•</text><text fill="black" style="font-size:10px; font-family:Courier" x="248.5" y="136">•</text><text fill="black" style="font-size:10px; font-family:Courier" x="264.5" y="136">•</text><text fill="black" style="font-size:10px; font-family:Courier" x="280.5" y="136">•</text><rect fill="#FF5454" height="16" width="16" x="292" y="124" /><text fill="black" style="font-size:15px; font-family:Courier" x="295" y="137">A</text><text fill="black" style="font-size:10px; font-family:Courier" x="312.5" y="136">•</text><text fill="black" style="font-size:10px; font-family:Courier" x="328.5" y="136">•</text><text fill="black" style="font-size:10px; font-family:Courier" x="344.5" y="136">•</text><text fill="black" style="font-size:10px; font-family:Courier" x="360.5" y="136">•</text><text fill="black" style="font-size:10px; font-family:Courier" x="376.5" y="136">•</text><text fill="black" style="font-size:14px; font-family:Arial" x="400" y="138">48</text><text fill="black" style="font-size:14px; font-family:Arial" x="480" y="138">3</text><text fill="black" style="font-size:14px; font-family:courier" x="560" y="138">chr20:60010546-60010565</text><text fill="black" style="font-size:10px; font-family:Courier" x="24.5" y="152">•</text><text fill="black" style="font-size:10px; font-family:Courier" x="40.5" y="152">•</text><text fill="black" style="font-size:10px; font-family:Courier" x="56.5" y="152">•</text><rect fill="#F5F500" height="16" width="16" x="68" y="140" /><text fill="black" style="font-size:15px; font-family:Courier" x="71" y="153">G</text><text fill="black" style="font-size:10px; font-family:Courier" x="88.5" y="152">•</text><text fill="black" style="font-size:10px; font-family:Courier" x="104.5" y="152">•</text><text fill="black" style="font-size:10px; font-family:Courier" x="120.5" y="152">•</text><text fill="black" style="font-size:10px; font-family:Courier" x="136.5" y="152">•</text><text fill="black" style="font-size:10px; font-family:Courier" x="152.5" y="152">•</text><text fill="black" style="font-size:10px; font-family:Courier" x="168.5" y="152">•</text><text fill="black" style="font-size:10px; font-family:Courier" x="184.5" y="152">•</text><rect fill="#F5F500" height="16" width="16" x="196" y="140" /><text fill="black" style="font-size:15px; font-family:Courier" x="199" y="153">G</text><text fill="black" style="font-size:10px; font-family:Courier" x="216.5" y="152">•</text><text fill="black" style="font-size:10px; font-family:Courier" x="232.5" y="152">•</text><text fill="black" style="font-size:10px; font-family:Courier" x="248.5" y="152">•</text><text fill="black" style="font-size:10px; font-family:Courier" x="264.5" y="152">•</text><text fill="black" style="font-size:10px; font-family:Courier" x="280.5" y="152">•</text><text fill="black" style="font-size:10px; font-family:Courier" x="296.5" y="152">•</text><text fill="black" style="font-size:10px; font-family:Courier" x="312.5" y="152">•</text><text fill="black" style="font-size:10px; font-family:Courier" x="328.5" y="152">•</text><text fill="black" style="font-size:10px; font-family:Courier" x="344.5" y="152">•</text><text fill="black" style="font-size:10px; font-family:Courier" x="360.5" y="152">•</text><text fill="black" style="font-size:10px; font-family:Courier" x="376.5" y="152">•</text><text fill="black" style="font-size:14px; font-family:Arial" x="400" y="154">47</text><text fill="black" style="font-size:14px; font-family:Arial" x="480" y="154">2</text><text fill="black" style="font-size:14px; font-family:courier" x="560" y="154">chr15:41044239-41044258</text><rect fill="#FF5454" height="16" width="16" x="20" y="156" /><text fill="black" style="font-size:15px; font-family:Courier" x="23" y="169">A</text><text fill="black" style="font-size:10px; font-family:Courier" x="40.5" y="168">•</text><text fill="black" style="font-size:10px; font-family:Courier" x="56.5" y="168">•</text><text fill="black" style="font-size:10px; font-family:Courier" x="72.5" y="168">•</text><rect fill="#F5F500" height="16" width="16" x="84" y="156" /><text fill="black" style="font-size:15px; font-family:Courier" x="87" y="169">G</text><text fill="black" style="font-size:10px; font-family:Courier" x="104.5" y="168">•</text><text fill="black" style="font-size:10px; font-family:Courier" x="120.5" y="168">•</text><text fill="black" style="font-size:10px; font-family:Courier" x="136.5" y="168">•</text><text fill="black" style="font-size:10px; font-family:Courier" x="152.5" y="168">•</text><text fill="black" style="font-size:10px; font-family:Courier" x="168.5" y="168">•</text><text fill="black" style="font-size:10px; font-family:Courier" x="184.5" y="168">•</text><text fill="black" style="font-size:10px; font-family:Courier" x="200.5" y="168">•</text><rect fill="#FF5454" height="16" width="16" x="212" y="156" /><text fill="black" style="font-size:15px; font-family:Courier" x="215" y="169">A</text><text fill="black" style="font-size:10px; font-family:Courier" x="232.5" y="168">•</text><text fill="black" style="font-size:10px; font-family:Courier" x="248.5" y="168">•</text><text fill="black" style="font-size:10px; font-family:Courier" x="264.5" y="168">•</text><text fill="black" style="font-size:10px; font-family:Courier" x="280.5" y="168">•</text><text fill="black" style="font-size:10px; font-family:Courier" x="296.5" y="168">•</text><text fill="black" style="font-size:10px; font-family:Courier" x="312.5" y="168">•</text><text fill="black" style="font-size:10px; font-family:Courier" x="328.5" y="168">•</text><text fill="black" style="font-size:10px; font-family:Courier" x="344.5" y="168">•</text><text fill="black" style="font-size:10px; font-family:Courier" x="360.5" y="168">•</text><text fill="black" style="font-size:10px; font-family:Courier" x="376.5" y="168">•</text><text fill="black" style="font-size:14px; font-family:Arial" x="400" y="170">40</text><text fill="black" style="font-size:14px; font-family:Arial" x="480" y="170">3</text><text fill="black" style="font-size:14px; font-family:courier" x="560" y="170">chr13:39262912-39262931</text><text fill="black" style="font-size:10px; font-family:Courier" x="24.5" y="184">•</text><rect fill="#FF5454" height="16" width="16" x="36" y="172" /><text fill="black" style="font-size:15px; font-family:Courier" x="39" y="185">A</text><text fill="black" style="font-size:10px; font-family:Courier" x="56.5" y="184">•</text><text fill="black" style="font-size:10px; font-family:Courier" x="72.5" y="184">•</text><text fill="black" style="font-size:10px; font-family:Courier" x="88.5" y="184">•</text><rect fill="#26A8FF" height="16" width="16" x="100" y="172" /><text fill="black" style="font-size:15px; font-family:Courier" x="103" y="185">C</text><rect fill="#FF5454" height="16" width="16" x="116" y="172" /><text fill="black" style="font-size:15px; font-family:Courier" x="119" y="185">A</text><text fill="black" style="font-size:10px; font-family:Courier" x="136.5" y="184">•</text><text fill="black" style="font-size:10px; font-family:Courier" x="152.5" y="184">•</text><text fill="black" style="font-size:10px; font-family:Courier" x="168.5" y="184">•</text><text fill="black" style="font-size:10px; font-family:Courier" x="184.5" y="184">•</text><text fill="black" style="font-size:10px; font-family:Courier" x="200.5" y="184">•</text><text fill="black" style="font-size:10px; font-family:Courier" x="216.5" y="184">•</text><text fill="black" style="font-size:10px; font-family:Courier" x="232.5" y="184">•</text><text fill="black" style="font-size:10px; font-family:Courier" x="248.5" y="184">•</text><text fill="black" style="font-size:10px; font-family:Courier" x="264.5" y="184">•</text><rect fill="#FF5454" height="16" width="16" x="276" y="172" /><text fill="black" style="font-size:15px; font-family:Courier" x="279" y="185">A</text><text fill="black" style="font-size:10px; font-family:Courier" x="296.5" y="184">•</text><text fill="black" style="font-size:10px; font-family:Courier" x="312.5" y="184">•</text><text fill="black" style="font-size:10px; font-family:Courier" x="328.5" y="184">•</text><text fill="black" style="font-size:10px; font-family:Courier" x="344.5" y="184">•</text><text fill="black" style="font-size:10px; font-family:Courier" x="360.5" y="184">•</text><text fill="black" style="font-size:10px; font-family:Courier" x="376.5" y="184">•</text><text fill="black" style="font-size:14px; font-family:Arial" x="400" y="186">18</text><text fill="black" style="font-size:14px; font-family:Arial" x="480" y="186">4</text><text fill="black" style="font-size:14px; font-family:courier" x="560" y="186">chr17:75429277-75429296</text><text fill="black" style="font-size:10px; font-family:Courier" x="24.5" y="200">•</text><text fill="black" style="font-size:10px; font-family:Courier" x="40.5" y="200">•</text><text fill="black" style="font-size:10px; font-family:Courier" x="56.5" y="200">•</text><text fill="black" style="font-size:10px; font-family:Courier" x="72.5" y="200">•</text><text fill="black" style="font-size:10px; font-family:Courier" x="88.5" y="200">•</text><text fill="black" style="font-size:10px; font-family:Courier" x="104.5" y="200">•</text><text fill="black" style="font-size:10px; font-family:Courier" x="120.5" y="200">•</text><rect fill="#F5F500" height="16" width="16" x="132" y="188" /><text fill="black" style="font-size:15px; font-family:Courier" x="135" y="201">G</text><text fill="black" style="font-size:10px; font-family:Courier" x="152.5" y="200">•</text><text fill="black" style="font-size:10px; font-family:Courier" x="168.5" y="200">•</text><rect fill="#00D118" height="16" width="16" x="180" y="188" /><text fill="black" style="font-size:15px; font-family:Courier" x="183" y="201">T</text><text fill="black" style="font-size:10px; font-family:Courier" x="200.5" y="200">•</text><text fill="black" style="font-size:10px; font-family:Courier" x="216.5" y="200">•</text><text fill="black" style="font-size:10px; font-family:Courier" x="232.5" y="200">•</text><text fill="black" style="font-size:10px; font-family:Courier" x="248.5" y="200">•</text><text fill="black" style="font-size:10px; font-family:Courier" x="264.5" y="200">•</text><text fill="black" style="font-size:10px; font-family:Courier" x="280.5" y="200">•</text><text fill="black" style="font-size:10px; font-family:Courier" x="296.5" y="200">•</text><text fill="black" style="font-size:10px; font-family:Courier" x="312.5" y="200">•</text><text fill="black" style="font-size:10px; font-family:Courier" x="328.5" y="200">•</text><text fill="black" style="font-size:10px; font-family:Courier" x="344.5" y="200">•</text><text fill="black" style="font-size:10px; font-family:Courier" x="360.5" y="200">•</text><text fill="black" style="font-size:10px; font-family:Courier" x="376.5" y="200">•</text><text fill="black" style="font-size:14px; font-family:Arial" x="400" y="202">14</text><text fill="black" style="font-size:14px; font-family:Arial" x="480" y="202">2</text><text fill="black" style="font-size:14px; font-family:courier" x="560" y="202">chr13:27629407-27629426</text><text fill="black" style="font-size:10px; font-family:Courier" x="24.5" y="216">•</text><text fill="black" style="font-size:10px; font-family:Courier" x="40.5" y="216">•</text><text fill="black" style="font-size:10px; font-family:Courier" x="56.5" y="216">•</text><text fill="black" style="font-size:10px; font-family:Courier" x="72.5" y="216">•</text><text fill="black" style="font-size:10px; font-family:Courier" x="88.5" y="216">•</text><text fill="black" style="font-size:10px; font-family:Courier" x="104.5" y="216">•</text><text fill="black" style="font-size:10px; font-family:Courier" x="120.5" y="216">•</text><text fill="black" style="font-size:10px; font-family:Courier" x="136.5" y="216">•</text><rect fill="#00D118" height="16" width="16" x="148" y="204" /><text fill="black" style="font-size:15px; font-family:Courier" x="151" y="217">T</text><text fill="black" style="font-size:10px; font-family:Courier" x="168.5" y="216">•</text><text fill="black" style="font-size:10px; font-family:Courier" x="184.5" y="216">•</text><text fill="black" style="font-size:10px; font-family:Courier" x="200.5" y="216">•</text><text fill="black" style="font-size:10px; font-family:Courier" x="216.5" y="216">•</text><text fill="black" style="font-size:10px; font-family:Courier" x="232.5" y="216">•</text><rect fill="#F5F500" height="16" width="16" x="244" y="204" /><text fill="black" style="font-size:15px; font-family:Courier" x="247" y="217">G</text><text fill="black" style="font-size:10px; font-family:Courier" x="264.5" y="216">•</text><text fill="black" style="font-size:10px; font-family:Courier" x="280.5" y="216">•</text><text fill="black" style="font-size:10px; font-family:Courier" x="296.5" y="216">•</text><text fill="black" style="font-size:10px; font-family:Courier" x="312.5" y="216">•</text><text fill="black" style="font-size:10px; font-family:Courier" x="328.5" y="216">•</text><text fill="black" style="font-size:10px; font-family:Courier" x="344.5" y="216">•</text><text fill="black" style="font-size:10px; font-family:Courier" x="360.5" y="216">•</text><text fill="black" style="font-size:10px; font-family:Courier" x="376.5" y="216">•</text><text fill="black" style="font-size:14px; font-family:Arial" x="400" y="218">13</text><text fill="black" style="font-size:14px; font-family:Arial" x="480" y="218">2</text><text fill="black" style="font-size:14px; font-family:courier" x="560" y="218">chr6:160517878-160517897</text><rect fill="#26A8FF" height="16" width="16" x="20" y="220" /><text fill="black" style="font-size:15px; font-family:Courier" x="23" y="233">C</text><rect fill="#FF5454" height="16" width="16" x="36" y="220" /><text fill="black" style="font-size:15px; font-family:Courier" x="39" y="233">A</text><text fill="black" style="font-size:10px; font-family:Courier" x="56.5" y="232">•</text><text fill="black" style="font-size:10px; font-family:Courier" x="72.5" y="232">•</text><text fill="black" style="font-size:10px; font-family:Courier" x="88.5" y="232">•</text><text fill="black" style="font-size:10px; font-family:Courier" x="104.5" y="232">•</text><text fill="black" style="font-size:10px; font-family:Courier" x="120.5" y="232">•</text><text fill="black" style="font-size:10px; font-family:Courier" x="136.5" y="232">•</text><rect fill="#FF5454" height="16" width="16" x="148" y="220" /><text fill="black" style="font-size:15px; font-family:Courier" x="151" y="233">A</text><text fill="black" style="font-size:10px; font-family:Courier" x="168.5" y="232">•</text><text fill="black" style="font-size:10px; font-family:Courier" x="184.5" y="232">•</text><text fill="black" style="font-size:10px; font-family:Courier" x="200.5" y="232">•</text><text fill="black" style="font-size:10px; font-family:Courier" x="216.5" y="232">•</text><text fill="black" style="font-size:10px; font-family:Courier" x="232.5" y="232">•</text><text fill="black" style="font-size:10px; font-family:Courier" x="248.5" y="232">•</text><text fill="black" style="font-size:10px; font-family:Courier" x="264.5" y="232">•</text><text fill="black" style="font-size:10px; font-family:Courier" x="280.5" y="232">•</text><text fill="black" style="font-size:10px; font-family:Courier" x="296.5" y="232">•</text><text fill="black" style="font-size:10px; font-family:Courier" x="312.5" y="232">•</text><text fill="black" style="font-size:10px; font-family:Courier" x="328.5" y="232">•</text><text fill="black" style="font-size:10px; font-family:Courier" x="344.5" y="232">•</text><text fill="black" style="font-size:10px; font-family:Courier" x="360.5" y="232">•</text><text fill="black" style="font-size:10px; font-family:Courier" x="376.5" y="232">•</text><text fill="black" style="font-size:14px; font-family:Arial" x="400" y="234">12</text><text fill="black" style="font-size:14px; font-family:Arial" x="480" y="234">3</text><text fill="black" style="font-size:14px; font-family:courier" x="560" y="234">chr13:88900989-88901008</text><rect fill="#FF5454" height="16" width="16" x="20" y="236" /><text fill="black" style="font-size:15px; font-family:Courier" x="23" y="249">A</text><text fill="black" style="font-size:10px; font-family:Courier" x="40.5" y="248">•</text><text fill="black" style="font-size:10px; font-family:Courier" x="56.5" y="248">•</text><text fill="black" style="font-size:10px; font-family:Courier" x="72.5" y="248">•</text><text fill="black" style="font-size:10px; font-family:Courier" x="88.5" y="248">•</text><text fill="black" style="font-size:10px; font-family:Courier" x="104.5" y="248">•</text><text fill="black" style="font-size:10px; font-family:Courier" x="120.5" y="248">•</text><text fill="black" style="font-size:10px; font-family:Courier" x="136.5" y="248">•</text><rect fill="#FF5454" height="16" width="16" x="148" y="236" /><text fill="black" style="font-size:15px; font-family:Courier" x="151" y="249">A</text><text fill="black" style="font-size:10px; font-family:Courier" x="168.5" y="248">•</text><text fill="black" style="font-size:10px; font-family:Courier" x="184.5" y="248">•</text><text fill="black" style="font-size:10px; font-family:Courier" x="200.5" y="248">•</text><text fill="black" style="font-size:10px; font-family:Courier" x="216.5" y="248">•</text><text fill="black" style="font-size:10px; font-family:Courier" x="232.5" y="248">•</text><rect fill="#F5F500" height="16" width="16" x="244" y="236" /><text fill="black" style="font-size:15px; font-family:Courier" x="247" y="249">G</text><rect fill="#FF5454" height="16" width="16" x="260" y="236" /><text fill="black" style="font-size:15px; font-family:Courier" x="263" y="249">A</text><text fill="black" style="font-size:10px; font-family:Courier" x="280.5" y="248">•</text><text fill="black" style="font-size:10px; font-family:Courier" x="296.5" y="248">•</text><text fill="black" style="font-size:10px; font-family:Courier" x="312.5" y="248">•</text><text fill="black" style="font-size:10px; font-family:Courier" x="328.5" y="248">•</text><text fill="black" style="font-size:10px; font-family:Courier" x="344.5" y="248">•</text><text fill="black" style="font-size:10px; font-family:Courier" x="360.5" y="248">•</text><text fill="black" style="font-size:10px; font-family:Courier" x="376.5" y="248">•</text><text fill="black" style="font-size:14px; font-family:Arial" x="400" y="250">12</text><text fill="black" style="font-size:14px; font-family:Arial" x="480" y="250">4</text><text fill="black" style="font-size:14px; font-family:courier" x="560" y="250">chr7:1397382-1397401</text><text fill="black" style="font-size:10px; font-family:Courier" x="24.5" y="264">•</text><text fill="black" style="font-size:10px; font-family:Courier" x="40.5" y="264">•</text><text fill="black" style="font-size:10px; font-family:Courier" x="56.5" y="264">•</text><text fill="black" style="font-size:10px; font-family:Courier" x="72.5" y="264">•</text><text fill="black" style="font-size:10px; font-family:Courier" x="88.5" y="264">•</text><text fill="black" style="font-size:10px; font-family:Courier" x="104.5" y="264">•</text><text fill="black" style="font-size:10px; font-family:Courier" x="120.5" y="264">•</text><rect fill="#00D118" height="16" width="16" x="132" y="252" /><text fill="black" style="font-size:15px; font-family:Courier" x="135" y="265">T</text><text fill="black" style="font-size:10px; font-family:Courier" x="152.5" y="264">•</text><text fill="black" style="font-size:10px; font-family:Courier" x="168.5" y="264">•</text><text fill="black" style="font-size:10px; font-family:Courier" x="184.5" y="264">•</text><text fill="black" style="font-size:10px; font-family:Courier" x="200.5" y="264">•</text><text fill="black" style="font-size:10px; font-family:Courier" x="216.5" y="264">•</text><rect fill="#26A8FF" height="16" width="16" x="228" y="252" /><text fill="black" style="font-size:15px; font-family:Courier" x="231" y="265">C</text><text fill="black" style="font-size:10px; font-family:Courier" x="248.5" y="264">•</text><text fill="black" style="font-size:10px; font-family:Courier" x="264.5" y="264">•</text><text fill="black" style="font-size:10px; font-family:Courier" x="280.5" y="264">•</text><text fill="black" style="font-size:10px; font-family:Courier" x="296.5" y="264">•</text><text fill="black" style="font-size:10px; font-family:Courier" x="312.5" y="264">•</text><text fill="black" style="font-size:10px; font-family:Courier" x="328.5" y="264">•</text><text fill="black" style="font-size:10px; font-family:Courier" x="344.5" y="264">•</text><text fill="black" style="font-size:10px; font-family:Courier" x="360.5" y="264">•</text><text fill="black" style="font-size:10px; font-family:Courier" x="376.5" y="264">•</text><text fill="black" style="font-size:14px; font-family:Arial" x="400" y="266">11</text><text fill="black" style="font-size:14px; font-family:Arial" x="480" y="266">2</text><text fill="black" style="font-size:14px; font-family:courier" x="560" y="266">chr20:1151851-1151870</text><text fill="black" style="font-size:10px; font-family:Courier" x="24.5" y="280">•</text><text fill="black" style="font-size:10px; font-family:Courier" x="40.5" y="280">•</text><text fill="black" style="font-size:10px; font-family:Courier" x="56.5" y="280">•</text><text fill="black" style="font-size:10px; font-family:Courier" x="72.5" y="280">•</text><text fill="black" style="font-size:10px; font-family:Courier" x="88.5" y="280">•</text><text fill="black" style="font-size:10px; font-family:Courier" x="104.5" y="280">•</text><text fill="black" style="font-size:10px; font-family:Courier" x="120.5" y="280">•</text><rect fill="#FF5454" height="16" width="16" x="132" y="268" /><text fill="black" style="font-size:15px; font-family:Courier" x="135" y="281">A</text><text fill="black" style="font-size:10px; font-family:Courier" x="152.5" y="280">•</text><rect fill="#FF5454" height="16" width="16" x="164" y="268" /><text fill="black" style="font-size:15px; font-family:Courier" x="167" y="281">A</text><text fill="black" style="font-size:10px; font-family:Courier" x="184.5" y="280">•</text><text fill="black" style="font-size:10px; font-family:Courier" x="200.5" y="280">•</text><text fill="black" style="font-size:10px; font-family:Courier" x="216.5" y="280">•</text><text fill="black" style="font-size:10px; font-family:Courier" x="232.5" y="280">•</text><rect fill="#F5F500" height="16" width="16" x="244" y="268" /><text fill="black" style="font-size:15px; font-family:Courier" x="247" y="281">G</text><text fill="black" style="font-size:10px; font-family:Courier" x="264.5" y="280">•</text><text fill="black" style="font-size:10px; font-family:Courier" x="280.5" y="280">•</text><text fill="black" style="font-size:10px; font-family:Courier" x="296.5" y="280">•</text><text fill="black" style="font-size:10px; font-family:Courier" x="312.5" y="280">•</text><text fill="black" style="font-size:10px; font-family:Courier" x="328.5" y="280">•</text><text fill="black" style="font-size:10px; font-family:Courier" x="344.5" y="280">•</text><text fill="black" style="font-size:10px; font-family:Courier" x="360.5" y="280">•</text><text fill="black" style="font-size:10px; font-family:Courier" x="376.5" y="280">•</text><text fill="black" style="font-size:14px; font-family:Arial" x="400" y="282">10</text><text fill="black" style="font-size:14px; font-family:Arial" x="480" y="282">3</text><text fill="black" style="font-size:14px; font-family:courier" x="560" y="282">chr19:38616183-38616202</text><text fill="black" style="font-size:10px; font-family:Courier" x="24.5" y="296">•</text><text fill="black" style="font-size:10px; font-family:Courier" x="40.5" y="296">•</text><text fill="black" style="font-size:10px; font-family:Courier" x="56.5" y="296">•</text><text fill="black" style="font-size:10px; font-family:Courier" x="72.5" y="296">•</text><rect fill="#00D118" height="16" width="16" x="84" y="284" /><text fill="black" style="font-size:15px; font-family:Courier" x="87" y="297">T</text><rect fill="#26A8FF" height="16" width="16" x="100" y="284" /><text fill="black" style="font-size:15px; font-family:Courier" x="103" y="297">C</text><rect fill="#FF5454" height="16" width="16" x="116" y="284" /><text fill="black" style="font-size:15px; font-family:Courier" x="119" y="297">A</text><text fill="black" style="font-size:10px; font-family:Courier" x="136.5" y="296">•</text><text fill="black" style="font-size:10px; font-family:Courier" x="152.5" y="296">•</text><text fill="black" style="font-size:10px; font-family:Courier" x="168.5" y="296">•</text><text fill="black" style="font-size:10px; font-family:Courier" x="184.5" y="296">•</text><text fill="black" style="font-size:10px; font-family:Courier" x="200.5" y="296">•</text><text fill="black" style="font-size:10px; font-family:Courier" x="216.5" y="296">•</text><text fill="black" style="font-size:10px; font-family:Courier" x="232.5" y="296">•</text><text fill="black" style="font-size:10px; font-family:Courier" x="248.5" y="296">•</text><text fill="black" style="font-size:10px; font-family:Courier" x="264.5" y="296">•</text><text fill="black" style="font-size:10px; font-family:Courier" x="280.5" y="296">•</text><text fill="black" style="font-size:10px; font-family:Courier" x="296.5" y="296">•</text><text fill="black" style="font-size:10px; font-family:Courier" x="312.5" y="296">•</text><text fill="black" style="font-size:10px; font-family:Courier" x="328.5" y="296">•</text><text fill="black" style="font-size:10px; font-family:Courier" x="344.5" y="296">•</text><text fill="black" style="font-size:10px; font-family:Courier" x="360.5" y="296">•</text><text fill="black" style="font-size:10px; font-family:Courier" x="376.5" y="296">•</text><text fill="black" style="font-size:14px; font-family:Arial" x="400" y="298">9</text><text fill="black" style="font-size:14px; font-family:Arial" x="480" y="298">3</text><text fill="black" style="font-size:14px; font-family:courier" x="560" y="298">chr10:77103103-77103122</text><rect fill="#FF5454" height="16" width="16" x="20" y="300" /><text fill="black" style="font-size:15px; font-family:Courier" x="23" y="313">A</text><text fill="black" style="font-size:10px; font-family:Courier" x="40.5" y="312">•</text><rect fill="#F5F500" height="16" width="16" x="52" y="300" /><text fill="black" style="font-size:15px; font-family:Courier" x="55" y="313">G</text><text fill="black" style="font-size:10px; font-family:Courier" x="72.5" y="312">•</text><text fill="black" style="font-size:10px; font-family:Courier" x="88.5" y="312">•</text><text fill="black" style="font-size:10px; font-family:Courier" x="104.5" y="312">•</text><text fill="black" style="font-size:10px; font-family:Courier" x="120.5" y="312">•</text><text fill="black" style="font-size:10px; font-family:Courier" x="136.5" y="312">•</text><text fill="black" style="font-size:10px; font-family:Courier" x="152.5" y="312">•</text><text fill="black" style="font-size:10px; font-family:Courier" x="168.5" y="312">•</text><text fill="black" style="font-size:10px; font-family:Courier" x="184.5" y="312">•</text><text fill="black" style="font-size:10px; font-family:Courier" x="200.5" y="312">•</text><text fill="black" style="font-size:10px; font-family:Courier" x="216.5" y="312">•</text><text fill="black" style="font-size:10px; font-family:Courier" x="232.5" y="312">•</text><rect fill="#F5F500" height="16" width="16" x="244" y="300" /><text fill="black" style="font-size:15px; font-family:Courier" x="247" y="313">G</text><text fill="black" style="font-size:10px; font-family:Courier" x="264.5" y="312">•</text><text fill="black" style="font-size:10px; font-family:Courier" x="280.5" y="312">•</text><text fill="black" style="font-size:10px; font-family:Courier" x="296.5" y="312">•</text><text fill="black" style="font-size:10px; font-family:Courier" x="312.5" y="312">•</text><text fill="black" style="font-size:10px; font-family:Courier" x="328.5" y="312">•</text><text fill="black" style="font-size:10px; font-family:Courier" x="344.5" y="312">•</text><text fill="black" style="font-size:10px; font-family:Courier" x="360.5" y="312">•</text><text fill="black" style="font-size:10px; font-family:Courier" x="376.5" y="312">•</text><text fill="black" style="font-size:14px; font-family:Arial" x="400" y="314">9</text><text fill="black" style="font-size:14px; font-family:Arial" x="480" y="314">3</text><text fill="black" style="font-size:14px; font-family:courier" x="560" y="314">chr7:54561421-54561440</text><text fill="black" style="font-size:10px; font-family:Courier" x="24.5" y="328">•</text><text fill="black" style="font-size:10px; font-family:Courier" x="40.5" y="328">•</text><text fill="black" style="font-size:10px; font-family:Courier" x="56.5" y="328">•</text><rect fill="#00D118" height="16" width="16" x="68" y="316" /><text fill="black" style="font-size:15px; font-family:Courier" x="71" y="329">T</text><text fill="black" style="font-size:10px; font-family:Courier" x="88.5" y="328">•</text><text fill="black" style="font-size:10px; font-family:Courier" x="104.5" y="328">•</text><text fill="black" style="font-size:10px; font-family:Courier" x="120.5" y="328">•</text><text fill="black" style="font-size:10px; font-family:Courier" x="136.5" y="328">•</text><text fill="black" style="font-size:10px; font-family:Courier" x="152.5" y="328">•</text><text fill="black" style="font-size:10px; font-family:Courier" x="168.5" y="328">•</text><text fill="black" style="font-size:10px; font-family:Courier" x="184.5" y="328">•</text><text fill="black" style="font-size:10px; font-family:Courier" x="200.5" y="328">•</text><text fill="black" style="font-size:10px; font-family:Courier" x="216.5" y="328">•</text><text fill="black" style="font-size:10px; font-family:Courier" x="232.5" y="328">•</text><text fill="black" style="font-size:10px; font-family:Courier" x="248.5" y="328">•</text><text fill="black" style="font-size:10px; font-family:Courier" x="264.5" y="328">•</text><text fill="black" style="font-size:10px; font-family:Courier" x="280.5" y="328">•</text><rect fill="#F5F500" height="16" width="16" x="292" y="316" /><text fill="black" style="font-size:15px; font-family:Courier" x="295" y="329">G</text><text fill="black" style="font-size:10px; font-family:Courier" x="312.5" y="328">•</text><text fill="black" style="font-size:10px; font-family:Courier" x="328.5" y="328">•</text><text fill="black" style="font-size:10px; font-family:Courier" x="344.5" y="328">•</text><text fill="black" style="font-size:10px; font-family:Courier" x="360.5" y="328">•</text><text fill="black" style="font-size:10px; font-family:Courier" x="376.5" y="328">•</text><text fill="black" style="font-size:14px; font-family:Arial" x="400" y="330">7</text><text fill="black" style="font-size:14px; font-family:Arial" x="480" y="330">2</text><text fill="black" style="font-size:14px; font-family:courier" x="560" y="330">chr19:33382078-33382097</text><text fill="black" style="font-size:10px; font-family:Courier" x="24.5" y="344">•</text><text fill="black" style="font-size:10px; font-family:Courier" x="40.5" y="344">•</text><text fill="black" style="font-size:10px; font-family:Courier" x="56.5" y="344">•</text><text fill="black" style="font-size:10px; font-family:Courier" x="72.5" y="344">•</text><text fill="black" style="font-size:10px; font-family:Courier" x="88.5" y="344">•</text><text fill="black" style="font-size:10px; font-family:Courier" x="104.5" y="344">•</text><text fill="black" style="font-size:10px; font-family:Courier" x="120.5" y="344">•</text><text fill="black" style="font-size:10px; font-family:Courier" x="136.5" y="344">•</text><text fill="black" style="font-size:10px; font-family:Courier" x="152.5" y="344">•</text><text fill="black" style="font-size:10px; font-family:Courier" x="168.5" y="344">•</text><rect fill="#F5F500" height="16" width="16" x="180" y="332" /><text fill="black" style="font-size:15px; font-family:Courier" x="183" y="345">G</text><text fill="black" style="font-size:10px; font-family:Courier" x="200.5" y="344">•</text><text fill="black" style="font-size:10px; font-family:Courier" x="216.5" y="344">•</text><text fill="black" style="font-size:10px; font-family:Courier" x="232.5" y="344">•</text><text fill="black" style="font-size:10px; font-family:Courier" x="248.5" y="344">•</text><text fill="black" style="font-size:10px; font-family:Courier" x="264.5" y="344">•</text><text fill="black" style="font-size:10px; font-family:Courier" x="280.5" y="344">•</text><rect fill="#26A8FF" height="16" width="16" x="292" y="332" /><text fill="black" style="font-size:15px; font-family:Courier" x="295" y="345">C</text><text fill="black" style="font-size:10px; font-family:Courier" x="312.5" y="344">•</text><text fill="black" style="font-size:10px; font-family:Courier" x="328.5" y="344">•</text><text fill="black" style="font-size:10px; font-family:Courier" x="344.5" y="344">•</text><text fill="black" style="font-size:10px; font-family:Courier" x="360.5" y="344">•</text><text fill="black" style="font-size:10px; font-family:Courier" x="376.5" y="344">•</text><text fill="black" style="font-size:14px; font-family:Arial" x="400" y="346">3</text><text fill="black" style="font-size:14px; font-family:Arial" x="480" y="346">2</text><text fill="black" style="font-size:14px; font-family:courier" x="560" y="346">chr18:37194555-37194574</text><text fill="black" style="font-size:10px; font-family:Courier" x="24.5" y="360">•</text><text fill="black" style="font-size:10px; font-family:Courier" x="40.5" y="360">•</text><text fill="black" style="font-size:10px; font-family:Courier" x="56.5" y="360">•</text><rect fill="#00D118" height="16" width="16" x="68" y="348" /><text fill="black" style="font-size:15px; font-family:Courier" x="71" y="361">T</text><text fill="black" style="font-size:10px; font-family:Courier" x="88.5" y="360">•</text><rect fill="#26A8FF" height="16" width="16" x="100" y="348" /><text fill="black" style="font-size:15px; font-family:Courier" x="103" y="361">C</text><text fill="black" style="font-size:10px; font-family:Courier" x="120.5" y="360">•</text><text fill="black" style="font-size:10px; font-family:Courier" x="136.5" y="360">•</text><rect fill="#FF5454" height="16" width="16" x="148" y="348" /><text fill="black" style="font-size:15px; font-family:Courier" x="151" y="361">A</text><text fill="black" style="font-size:10px; font-family:Courier" x="168.5" y="360">•</text><text fill="black" style="font-size:10px; font-family:Courier" x="184.5" y="360">•</text><text fill="black" style="font-size:10px; font-family:Courier" x="200.5" y="360">•</text><text fill="black" style="font-size:10px; font-family:Courier" x="216.5" y="360">•</text><text fill="black" style="font-size:10px; font-family:Courier" x="232.5" y="360">•</text><text fill="black" style="font-size:10px; font-family:Courier" x="248.5" y="360">•</text><text fill="black" style="font-size:10px; font-family:Courier" x="264.5" y="360">•</text><text fill="black" style="font-size:10px; font-family:Courier" x="280.5" y="360">•</text><text fill="black" style="font-size:10px; font-family:Courier" x="296.5" y="360">•</text><text fill="black" style="font-size:10px; font-family:Courier" x="312.5" y="360">•</text><text fill="black" style="font-size:10px; font-family:Courier" x="328.5" y="360">•</text><text fill="black" style="font-size:10px; font-family:Courier" x="344.5" y="360">•</text><text fill="black" style="font-size:10px; font-family:Courier" x="360.5" y="360">•</text><text fill="black" style="font-size:10px; font-family:Courier" x="376.5" y="360">•</text><text fill="black" style="font-size:14px; font-family:Arial" x="400" y="362">3</text><text fill="black" style="font-size:14px; font-family:Arial" x="480" y="362">3</text><text fill="black" style="font-size:14px; font-family:courier" x="560" y="362">chr3:10418953-10418972</text></svg>