<?xml version="1.0" encoding="utf-8" ?>
<svg baseProfile="full" height="11in" version="1.1" width="8.5in" xmlns="http://www.w3.org/2000/svg" xmlns:ev="http://www.w3.org/2001/xml-events" xmlns:xlink="http://www.w3.org/1999/xlink"><defs /><text style="font-size:20px; font-family:Arial" x="20" y="30">DISCOVER-Seq Off Targets</text><text style="font-size:14px; font-family:Courier" x="347" y="48">PAM</text><rect fill="#FF5454" height="16" width="16" x="20" y="50" /><text fill="black" style="font-size:15px; font-family:Courier" x="23" y="63">A</text><rect fill="#F5F500" height="16" width="16" x="36" y="50" /><text fill="black" style="font-size:15px; font-family:Courier" x="39" y="63">G</text><rect fill="#26A8FF" height="16" width="16" x="52" y="50" /><text fill="black" style="font-size:15px; font-family:Courier" x="55" y="63">C</text><rect fill="#FF5454" height="16" width="16" x="68" y="50" /><text fill="black" style="font-size:15px; font-family:Courier" x="71" y="63">A</text><rect fill="#F5F500" height="16" width="16" x="84" y="50" /><text fill="black" style="font-size:15px; font-family:Courier" x="87" y="63">G</text><rect fill="#26A8FF" height="16" width="16" x="100" y="50" /><text fill="black" style="font-size:15px; font-family:Courier" x="103" y="63">C</text><rect fill="#FF5454" height="16" width="16" x="116" y="50" /><text fill="black" style="font-size:15px; font-family:Courier" x="119" y="63">A</text><rect fill="#F5F500" height="16" width="16" x="132" y="50" /><text fill="black" style="font-size:15px; font-family:Courier" x="135" y="63">G</text><rect fill="#26A8FF" height="16" width="16" x="148" y="50" /><text fill="black" style="font-size:15px; font-family:Courier" x="151" y="63">C</text><rect fill="#F5F500" height="16" width="16" x="164" y="50" /><text fill="black" style="font-size:15px; font-family:Courier" x="167" y="63">G</text><rect fill="#F5F500" height="16" width="16" x="180" y="50" /><text fill="black" style="font-size:15px; font-family:Courier" x="183" y="63">G</text><rect fill="#26A8FF" height="16" width="16" x="196" y="50" /><text fill="black" style="font-size:15px; font-family:Courier" x="199" y="63">C</text><rect fill="#F5F500" height="16" width="16" x="212" y="50" /><text fill="black" style="font-size:15px; font-family:Courier" x="215" y="63">G</text><rect fill="#F5F500" height="16" width="16" x="228" y="50" /><text fill="black" style="font-size:15px; font-family:Courier" x="231" y="63">G</text><rect fill="#26A8FF" height="16" width="16" x="244" y="50" /><text fill="black" style="font-size:15px; font-family:Courier" x="247" y="63">C</text><rect fill="#FF5454" height="16" width="16" x="260" y="50" /><text fill="black" style="font-size:15px; font-family:Courier" x="263" y="63">A</text><rect fill="#FF5454" height="16" width="16" x="276" y="50" /><text fill="black" style="font-size:15px; font-family:Courier" x="279" y="63">A</text><rect fill="#26A8FF" height="16" width="16" x="292" y="50" /><text fill="black" style="font-size:15px; font-family:Courier" x="295" y="63">C</text><rect fill="#FF5454" height="16" width="16" x="308" y="50" /><text fill="black" style="font-size:15px; font-family:Courier" x="311" y="63">A</text><rect fill="#F5F500" height="16" width="16" x="324" y="50" /><text fill="black" style="font-size:15px; font-family:Courier" x="327" y="63">G</text><rect fill="#B3B3B3" height="16" width="16" x="340" y="50" /><text fill="black" style="font-size:15px; font-family:Courier" x="343" y="63">N</text><rect fill="#F5F500" height="16" width="16" x="356" y="50" /><text fill="black" style="font-size:15px; font-family:Courier" x="359" y="63">G</text><rect fill="#F5F500" height="16" width="16" x="372" y="50" /><text fill="black" style="font-size:15px; font-family:Courier" x="375" y="63">G</text><text style="font-size:15px; font-family:Arial" x="396.0" y="56">DISCO</text><text style="font-size:15px; font-family:Arial" x="396.0" y="71">Score</text><text style="font-size:15px; font-family:Arial" x="456.0" y="71">Mismatches</text><text style="font-size:15px; font-family:Arial" x="559.2" y="71">Coordinates</text><text fill="black" style="font-size:10px; font-family:Courier" x="24.5" y="88">•</text><text fill="black" style="font-size:10px; font-family:Courier" x="40.5" y="88">•</text><text fill="black" style="font-size:10px; font-family:Courier" x="56.5" y="88">•</text><text fill="black" style="font-size:10px; font-family:Courier" x="72.5" y="88">•</text><text fill="black" style="font-size:10px; font-family:Courier" x="88.5" y="88">•</text><text fill="black" style="font-size:10px; font-family:Courier" x="104.5" y="88">•</text><text fill="black" style="font-size:10px; font-family:Courier" x="120.5" y="88">•</text><text fill="black" style="font-size:10px; font-family:Courier" x="136.5" y="88">•</text><text fill="black" style="font-size:10px; font-family:Courier" x="152.5" y="88">•</text><text fill="black" style="font-size:10px; font-family:Courier" x="168.5" y="88">•</text><text fill="black" style="font-size:10px; font-family:Courier" x="184.5" y="88">•</text><text fill="black" style="font-size:10px; font-family:Courier" x="200.5" y="88">•</text><text fill="black" style="font-size:10px; font-family:Courier" x="216.5" y="88">•</text><text fill="black" style="font-size:10px; font-family:Courier" x="232.5" y="88">•</text><text fill="black" style="font-size:10px; font-family:Courier" x="248.5" y="88">•</text><text fill="black" style="font-size:10px; font-family:Courier" x="264.5" y="88">•</text><text fill="black" style="font-size:10px; font-family:Courier" x="280.5" y="88">•</text><text fill="black" style="font-size:10px; font-family:Courier" x="296.5" y="88">•</text><text fill="black" style="font-size:10px; font-family:Courier" x="312.5" y="88">•</text><text fill="black" style="font-size:10px; font-family:Courier" x="328.5" y="88">•</text><text fill="black" style="font-size:10px; font-family:Courier" x="344.5" y="88">•</text><text fill="black" style="font-size:10px; font-family:Courier" x="360.5" y="88">•</text><text fill="black" style="font-size:10px; font-family:Courier" x="376.5" y="88">•</text><text fill="red" style="font-size:14px; font-family:Arial" x="400" y="90">505</text><text fill="red" style="font-size:14px; font-family:Arial" x="468.0" y="90">Target</text><text fill="red" style="font-size:14px; font-family:courier" x="560" y="90">chr4:106463846-106463865</text><text fill="black" style="font-size:10px; font-family:Courier" x="24.5" y="104">•</text><text fill="black" style="font-size:10px; font-family:Courier" x="40.5" y="104">•</text><text fill="black" style="font-size:10px; font-family:Courier" x="56.5" y="104">•</text><text fill="black" style="font-size:10px; font-family:Courier" x="72.5" y="104">•</text><text fill="black" style="font-size:10px; font-family:Courier" x="88.5" y="104">•</text><text fill="black" style="font-size:10px; font-family:Courier" x="104.5" y="104">•</text><text fill="black" style="font-size:10px; font-family:Courier" x="120.5" y="104">•</text><text fill="black" style="font-size:10px; font-family:Courier" x="136.5" y="104">•</text><text fill="black" style="font-size:10px; font-family:Courier" x="152.5" y="104">•</text><rect fill="#FF5454" height="16" width="16" x="164" y="92" /><text fill="black" style="font-size:15px; font-family:Courier" x="167" y="105">A</text><text fill="black" style="font-size:10px; font-family:Courier" x="184.5" y="104">•</text><text fill="black" style="font-size:10px; font-family:Courier" x="200.5" y="104">•</text><rect fill="#FF5454" height="16" width="16" x="212" y="92" /><text fill="black" style="font-size:15px; font-family:Courier" x="215" y="105">A</text><text fill="black" style="font-size:10px; font-family:Courier" x="232.5" y="104">•</text><text fill="black" style="font-size:10px; font-family:Courier" x="248.5" y="104">•</text><text fill="black" style="font-size:10px; font-family:Courier" x="264.5" y="104">•</text><text fill="black" style="font-size:10px; font-family:Courier" x="280.5" y="104">•</text><text fill="black" style="font-size:10px; font-family:Courier" x="296.5" y="104">•</text><text fill="black" style="font-size:10px; font-family:Courier" x="312.5" y="104">•</text><text fill="black" style="font-size:10px; font-family:Courier" x="328.5" y="104">•</text><text fill="black" style="font-size:10px; font-family:Courier" x="344.5" y="104">•</text><text fill="black" style="font-size:10px; font-family:Courier" x="360.5" y="104">•</text><text fill="black" style="font-size:10px; font-family:Courier" x="376.5" y="104">•</text><text fill="black" style="font-size:14px; font-family:Arial" x="400" y="106">201</text><text fill="black" style="font-size:14px; font-family:Arial" x="480" y="106">2</text><text fill="black" style="font-size:14px; font-family:courier" x="560" y="106">chr10:37138614-37138633</text><text fill="black" style="font-size:10px; font-family:Courier" x="24.5" y="120">•</text><text fill="black" style="font-size:10px; font-family:Courier" x="40.5" y="120">•</text><text fill="black" style="font-size:10px; font-family:Courier" x="56.5" y="120">•</text><text fill="black" style="font-size:10px; font-family:Courier" x="72.5" y="120">•</text><text fill="black" style="font-size:10px; font-family:Courier" x="88.5" y="120">•</text><text fill="black" style="font-size:10px; font-family:Courier" x="104.5" y="120">•</text><text fill="black" style="font-size:10px; font-family:Courier" x="120.5" y="120">•</text><text fill="black" style="font-size:10px; font-family:Courier" x="136.5" y="120">•</text><text fill="black" style="font-size:10px; font-family:Courier" x="152.5" y="120">•</text><rect fill="#FF5454" height="16" width="16" x="164" y="108" /><text fill="black" style="font-size:15px; font-family:Courier" x="167" y="121">A</text><text fill="black" style="font-size:10px; font-family:Courier" x="184.5" y="120">•</text><text fill="black" style="font-size:10px; font-family:Courier" x="200.5" y="120">•</text><rect fill="#FF5454" height="16" width="16" x="212" y="108" /><text fill="black" style="font-size:15px; font-family:Courier" x="215" y="121">A</text><text fill="black" style="font-size:10px; font-family:Courier" x="232.5" y="120">•</text><text fill="black" style="font-size:10px; font-family:Courier" x="248.5" y="120">•</text><text fill="black" style="font-size:10px; font-family:Courier" x="264.5" y="120">•</text><text fill="black" style="font-size:10px; font-family:Courier" x="280.5" y="120">•</text><text fill="black" style="font-size:10px; font-family:Courier" x="296.5" y="120">•</text><text fill="black" style="font-size:10px; font-family:Courier" x="312.5" y="120">•</text><text fill="black" style="font-size:10px; font-family:Courier" x="328.5" y="120">•</text><text fill="black" style="font-size:10px; font-family:Courier" x="344.5" y="120">•</text><text fill="black" style="font-size:10px; font-family:Courier" x="360.5" y="120">•</text><text fill="black" style="font-size:10px; font-family:Courier" x="376.5" y="120">•</text><text fill="black" style="font-size:14px; font-family:Arial" x="400" y="122">121</text><text fill="black" style="font-size:14px; font-family:Arial" x="480" y="122">2</text><text fill="black" style="font-size:14px; font-family:courier" x="560" y="122">chr17:15826035-15826054</text><text fill="black" style="font-size:10px; font-family:Courier" x="24.5" y="136">•</text><text fill="black" style="font-size:10px; font-family:Courier" x="40.5" y="136">•</text><text fill="black" style="font-size:10px; font-family:Courier" x="56.5" y="136">•</text><text fill="black" style="font-size:10px; font-family:Courier" x="72.5" y="136">•</text><text fill="black" style="font-size:10px; font-family:Courier" x="88.5" y="136">•</text><text fill="black" style="font-size:10px; font-family:Courier" x="104.5" y="136">•</text><text fill="black" style="font-size:10px; font-family:Courier" x="120.5" y="136">•</text><text fill="black" style="font-size:10px; font-family:Courier" x="136.5" y="136">•</text><text fill="black" style="font-size:10px; font-family:Courier" x="152.5" y="136">•</text><rect fill="#FF5454" height="16" width="16" x="164" y="124" /><text fill="black" style="font-size:15px; font-family:Courier" x="167" y="137">A</text><text fill="black" style="font-size:10px; font-family:Courier" x="184.5" y="136">•</text><text fill="black" style="font-size:10px; font-family:Courier" x="200.5" y="136">•</text><rect fill="#FF5454" height="16" width="16" x="212" y="124" /><text fill="black" style="font-size:15px; font-family:Courier" x="215" y="137">A</text><text fill="black" style="font-size:10px; font-family:Courier" x="232.5" y="136">•</text><text fill="black" style="font-size:10px; font-family:Courier" x="248.5" y="136">•</text><text fill="black" style="font-size:10px; font-family:Courier" x="264.5" y="136">•</text><text fill="black" style="font-size:10px; font-family:Courier" x="280.5" y="136">•</text><text fill="black" style="font-size:10px; font-family:Courier" x="296.5" y="136">•</text><text fill="black" style="font-size:10px; font-family:Courier" x="312.5" y="136">•</text><text fill="black" style="font-size:10px; font-family:Courier" x="328.5" y="136">•</text><text fill="black" style="font-size:10px; font-family:Courier" x="344.5" y="136">•</text><text fill="black" style="font-size:10px; font-family:Courier" x="360.5" y="136">•</text><text fill="black" style="font-size:10px; font-family:Courier" x="376.5" y="136">•</text><text fill="black" style="font-size:14px; font-family:Arial" x="400" y="138">92</text><text fill="black" style="font-size:14px; font-family:Arial" x="480" y="138">2</text><text fill="black" style="font-size:14px; font-family:courier" x="560" y="138">chr11:101246542-101246561</text><text fill="black" style="font-size:10px; font-family:Courier" x="24.5" y="152">•</text><text fill="black" style="font-size:10px; font-family:Courier" x="40.5" y="152">•</text><text fill="black" style="font-size:10px; font-family:Courier" x="56.5" y="152">•</text><text fill="black" style="font-size:10px; font-family:Courier" x="72.5" y="152">•</text><text fill="black" style="font-size:10px; font-family:Courier" x="88.5" y="152">•</text><text fill="black" style="font-size:10px; font-family:Courier" x="104.5" y="152">•</text><text fill="black" style="font-size:10px; font-family:Courier" x="120.5" y="152">•</text><text fill="black" style="font-size:10px; font-family:Courier" x="136.5" y="152">•</text><text fill="black" style="font-size:10px; font-family:Courier" x="152.5" y="152">•</text><rect fill="#FF5454" height="16" width="16" x="164" y="140" /><text fill="black" style="font-size:15px; font-family:Courier" x="167" y="153">A</text><text fill="black" style="font-size:10px; font-family:Courier" x="184.5" y="152">•</text><text fill="black" style="font-size:10px; font-family:Courier" x="200.5" y="152">•</text><rect fill="#FF5454" height="16" width="16" x="212" y="140" /><text fill="black" style="font-size:15px; font-family:Courier" x="215" y="153">A</text><text fill="black" style="font-size:10px; font-family:Courier" x="232.5" y="152">•</text><text fill="black" style="font-size:10px; font-family:Courier" x="248.5" y="152">•</text><text fill="black" style="font-size:10px; font-family:Courier" x="264.5" y="152">•</text><text fill="black" style="font-size:10px; font-family:Courier" x="280.5" y="152">•</text><text fill="black" style="font-size:10px; font-family:Courier" x="296.5" y="152">•</text><text fill="black" style="font-size:10px; font-family:Courier" x="312.5" y="152">•</text><text fill="black" style="font-size:10px; font-family:Courier" x="328.5" y="152">•</text><text fill="black" style="font-size:10px; font-family:Courier" x="344.5" y="152">•</text><text fill="black" style="font-size:10px; font-family:Courier" x="360.5" y="152">•</text><text fill="black" style="font-size:10px; font-family:Courier" x="376.5" y="152">•</text><text fill="black" style="font-size:14px; font-family:Arial" x="400" y="154">38</text><text fill="black" style="font-size:14px; font-family:Arial" x="480" y="154">2</text><text fill="black" style="font-size:14px; font-family:courier" x="560" y="154">chr11:3602880-3602899</text><text fill="black" style="font-size:10px; font-family:Courier" x="24.5" y="168">•</text><text fill="black" style="font-size:10px; font-family:Courier" x="40.5" y="168">•</text><text fill="black" style="font-size:10px; font-family:Courier" x="56.5" y="168">•</text><text fill="black" style="font-size:10px; font-family:Courier" x="72.5" y="168">•</text><text fill="black" style="font-size:10px; font-family:Courier" x="88.5" y="168">•</text><text fill="black" style="font-size:10px; font-family:Courier" x="104.5" y="168">•</text><text fill="black" style="font-size:10px; font-family:Courier" x="120.5" y="168">•</text><text fill="black" style="font-size:10px; font-family:Courier" x="136.5" y="168">•</text><rect fill="#F5F500" height="16" width="16" x="148" y="156" /><text fill="black" style="font-size:15px; font-family:Courier" x="151" y="169">G</text><text fill="black" style="font-size:10px; font-family:Courier" x="168.5" y="168">•</text><text fill="black" style="font-size:10px; font-family:Courier" x="184.5" y="168">•</text><text fill="black" style="font-size:10px; font-family:Courier" x="200.5" y="168">•</text><text fill="black" style="font-size:10px; font-family:Courier" x="216.5" y="168">•</text><text fill="black" style="font-size:10px; font-family:Courier" x="232.5" y="168">•</text><text fill="black" style="font-size:10px; font-family:Courier" x="248.5" y="168">•</text><text fill="black" style="font-size:10px; font-family:Courier" x="264.5" y="168">•</text><text fill="black" style="font-size:10px; font-family:Courier" x="280.5" y="168">•</text><text fill="black" style="font-size:10px; font-family:Courier" x="296.5" y="168">•</text><text fill="black" style="font-size:10px; font-family:Courier" x="312.5" y="168">•</text><text fill="black" style="font-size:10px; font-family:Courier" x="328.5" y="168">•</text><text fill="black" style="font-size:10px; font-family:Courier" x="344.5" y="168">•</text><text fill="black" style="font-size:10px; font-family:Courier" x="360.5" y="168">•</text><text fill="black" style="font-size:10px; font-family:Courier" x="376.5" y="168">•</text><text fill="black" style="font-size:14px; font-family:Arial" x="400" y="170">25</text><text fill="black" style="font-size:14px; font-family:Arial" x="480" y="170">1</text><text fill="black" style="font-size:14px; font-family:courier" x="560" y="170">chr11:99634631-99634650</text><text fill="black" style="font-size:10px; font-family:Courier" x="24.5" y="184">•</text><text fill="black" style="font-size:10px; font-family:Courier" x="40.5" y="184">•</text><text fill="black" style="font-size:10px; font-family:Courier" x="56.5" y="184">•</text><text fill="black" style="font-size:10px; font-family:Courier" x="72.5" y="184">•</text><text fill="black" style="font-size:10px; font-family:Courier" x="88.5" y="184">•</text><text fill="black" style="font-size:10px; font-family:Courier" x="104.5" y="184">•</text><text fill="black" style="font-size:10px; font-family:Courier" x="120.5" y="184">•</text><text fill="black" style="font-size:10px; font-family:Courier" x="136.5" y="184">•</text><text fill="black" style="font-size:10px; font-family:Courier" x="152.5" y="184">•</text><rect fill="#FF5454" height="16" width="16" x="164" y="172" /><text fill="black" style="font-size:15px; font-family:Courier" x="167" y="185">A</text><text fill="black" style="font-size:10px; font-family:Courier" x="184.5" y="184">•</text><text fill="black" style="font-size:10px; font-family:Courier" x="200.5" y="184">•</text><rect fill="#FF5454" height="16" width="16" x="212" y="172" /><text fill="black" style="font-size:15px; font-family:Courier" x="215" y="185">A</text><text fill="black" style="font-size:10px; font-family:Courier" x="232.5" y="184">•</text><text fill="black" style="font-size:10px; font-family:Courier" x="248.5" y="184">•</text><text fill="black" style="font-size:10px; font-family:Courier" x="264.5" y="184">•</text><text fill="black" style="font-size:10px; font-family:Courier" x="280.5" y="184">•</text><text fill="black" style="font-size:10px; font-family:Courier" x="296.5" y="184">•</text><text fill="black" style="font-size:10px; font-family:Courier" x="312.5" y="184">•</text><text fill="black" style="font-size:10px; font-family:Courier" x="328.5" y="184">•</text><text fill="black" style="font-size:10px; font-family:Courier" x="344.5" y="184">•</text><text fill="black" style="font-size:10px; font-family:Courier" x="360.5" y="184">•</text><text fill="black" style="font-size:10px; font-family:Courier" x="376.5" y="184">•</text><text fill="black" style="font-size:14px; font-family:Arial" x="400" y="186">22</text><text fill="black" style="font-size:14px; font-family:Arial" x="480" y="186">2</text><text fill="black" style="font-size:14px; font-family:courier" x="560" y="186">chr11:3602648-3602667</text><text fill="black" style="font-size:10px; font-family:Courier" x="24.5" y="200">•</text><text fill="black" style="font-size:10px; font-family:Courier" x="40.5" y="200">•</text><text fill="black" style="font-size:10px; font-family:Courier" x="56.5" y="200">•</text><text fill="black" style="font-size:10px; font-family:Courier" x="72.5" y="200">•</text><text fill="black" style="font-size:10px; font-family:Courier" x="88.5" y="200">•</text><text fill="black" style="font-size:10px; font-family:Courier" x="104.5" y="200">•</text><text fill="black" style="font-size:10px; font-family:Courier" x="120.5" y="200">•</text><text fill="black" style="font-size:10px; font-family:Courier" x="136.5" y="200">•</text><rect fill="#F5F500" height="16" width="16" x="148" y="188" /><text fill="black" style="font-size:15px; font-family:Courier" x="151" y="201">G</text><text fill="black" style="font-size:10px; font-family:Courier" x="168.5" y="200">•</text><text fill="black" style="font-size:10px; font-family:Courier" x="184.5" y="200">•</text><text fill="black" style="font-size:10px; font-family:Courier" x="200.5" y="200">•</text><text fill="black" style="font-size:10px; font-family:Courier" x="216.5" y="200">•</text><text fill="black" style="font-size:10px; font-family:Courier" x="232.5" y="200">•</text><text fill="black" style="font-size:10px; font-family:Courier" x="248.5" y="200">•</text><text fill="black" style="font-size:10px; font-family:Courier" x="264.5" y="200">•</text><text fill="black" style="font-size:10px; font-family:Courier" x="280.5" y="200">•</text><text fill="black" style="font-size:10px; font-family:Courier" x="296.5" y="200">•</text><text fill="black" style="font-size:10px; font-family:Courier" x="312.5" y="200">•</text><text fill="black" style="font-size:10px; font-family:Courier" x="328.5" y="200">•</text><text fill="black" style="font-size:10px; font-family:Courier" x="344.5" y="200">•</text><text fill="black" style="font-size:10px; font-family:Courier" x="360.5" y="200">•</text><text fill="black" style="font-size:10px; font-family:Courier" x="376.5" y="200">•</text><text fill="black" style="font-size:14px; font-family:Arial" x="400" y="202">18</text><text fill="black" style="font-size:14px; font-family:Arial" x="480" y="202">1</text><text fill="black" style="font-size:14px; font-family:courier" x="560" y="202">chr11:99643639-99643658</text><text fill="black" style="font-size:10px; font-family:Courier" x="24.5" y="216">•</text><text fill="black" style="font-size:10px; font-family:Courier" x="40.5" y="216">•</text><text fill="black" style="font-size:10px; font-family:Courier" x="56.5" y="216">•</text><text fill="black" style="font-size:10px; font-family:Courier" x="72.5" y="216">•</text><text fill="black" style="font-size:10px; font-family:Courier" x="88.5" y="216">•</text><text fill="black" style="font-size:10px; font-family:Courier" x="104.5" y="216">•</text><text fill="black" style="font-size:10px; font-family:Courier" x="120.5" y="216">•</text><text fill="black" style="font-size:10px; font-family:Courier" x="136.5" y="216">•</text><text fill="black" style="font-size:10px; font-family:Courier" x="152.5" y="216">•</text><rect fill="#FF5454" height="16" width="16" x="164" y="204" /><text fill="black" style="font-size:15px; font-family:Courier" x="167" y="217">A</text><text fill="black" style="font-size:10px; font-family:Courier" x="184.5" y="216">•</text><text fill="black" style="font-size:10px; font-family:Courier" x="200.5" y="216">•</text><rect fill="#FF5454" height="16" width="16" x="212" y="204" /><text fill="black" style="font-size:15px; font-family:Courier" x="215" y="217">A</text><text fill="black" style="font-size:10px; font-family:Courier" x="232.5" y="216">•</text><text fill="black" style="font-size:10px; font-family:Courier" x="248.5" y="216">•</text><text fill="black" style="font-size:10px; font-family:Courier" x="264.5" y="216">•</text><text fill="black" style="font-size:10px; font-family:Courier" x="280.5" y="216">•</text><text fill="black" style="font-size:10px; font-family:Courier" x="296.5" y="216">•</text><text fill="black" style="font-size:10px; font-family:Courier" x="312.5" y="216">•</text><text fill="black" style="font-size:10px; font-family:Courier" x="328.5" y="216">•</text><text fill="black" style="font-size:10px; font-family:Courier" x="344.5" y="216">•</text><text fill="black" style="font-size:10px; font-family:Courier" x="360.5" y="216">•</text><text fill="black" style="font-size:10px; font-family:Courier" x="376.5" y="216">•</text><text fill="black" style="font-size:14px; font-family:Arial" x="400" y="218">12</text><text fill="black" style="font-size:14px; font-family:Arial" x="480" y="218">2</text><text fill="black" style="font-size:14px; font-family:courier" x="560" y="218">chr11:3602316-3602335</text><text fill="black" style="font-size:10px; font-family:Courier" x="24.5" y="232">•</text><text fill="black" style="font-size:10px; font-family:Courier" x="40.5" y="232">•</text><rect fill="#00D118" height="16" width="16" x="52" y="220" /><text fill="black" style="font-size:15px; font-family:Courier" x="55" y="233">T</text><text fill="black" style="font-size:10px; font-family:Courier" x="72.5" y="232">•</text><text fill="black" style="font-size:10px; font-family:Courier" x="88.5" y="232">•</text><text fill="black" style="font-size:10px; font-family:Courier" x="104.5" y="232">•</text><text fill="black" style="font-size:10px; font-family:Courier" x="120.5" y="232">•</text><text fill="black" style="font-size:10px; font-family:Courier" x="136.5" y="232">•</text><text fill="black" style="font-size:10px; font-family:Courier" x="152.5" y="232">•</text><text fill="black" style="font-size:10px; font-family:Courier" x="168.5" y="232">•</text><text fill="black" style="font-size:10px; font-family:Courier" x="184.5" y="232">•</text><text fill="black" style="font-size:10px; font-family:Courier" x="200.5" y="232">•</text><rect fill="#FF5454" height="16" width="16" x="212" y="220" /><text fill="black" style="font-size:15px; font-family:Courier" x="215" y="233">A</text><text fill="black" style="font-size:10px; font-family:Courier" x="232.5" y="232">•</text><text fill="black" style="font-size:10px; font-family:Courier" x="248.5" y="232">•</text><text fill="black" style="font-size:10px; font-family:Courier" x="264.5" y="232">•</text><text fill="black" style="font-size:10px; font-family:Courier" x="280.5" y="232">•</text><text fill="black" style="font-size:10px; font-family:Courier" x="296.5" y="232">•</text><text fill="black" style="font-size:10px; font-family:Courier" x="312.5" y="232">•</text><text fill="black" style="font-size:10px; font-family:Courier" x="328.5" y="232">•</text><text fill="black" style="font-size:10px; font-family:Courier" x="344.5" y="232">•</text><text fill="black" style="font-size:10px; font-family:Courier" x="360.5" y="232">•</text><text fill="black" style="font-size:10px; font-family:Courier" x="376.5" y="232">•</text><text fill="black" style="font-size:14px; font-family:Arial" x="400" y="234">11</text><text fill="black" style="font-size:14px; font-family:Arial" x="480" y="234">2</text><text fill="black" style="font-size:14px; font-family:courier" x="560" y="234">chr7:30765381-30765400</text><text fill="black" style="font-size:10px; font-family:Courier" x="24.5" y="248">•</text><text fill="black" style="font-size:10px; font-family:Courier" x="40.5" y="248">•</text><text fill="black" style="font-size:10px; font-family:Courier" x="56.5" y="248">•</text><text fill="black" style="font-size:10px; font-family:Courier" x="72.5" y="248">•</text><text fill="black" style="font-size:10px; font-family:Courier" x="88.5" y="248">•</text><text fill="black" style="font-size:10px; font-family:Courier" x="104.5" y="248">•</text><text fill="black" style="font-size:10px; font-family:Courier" x="120.5" y="248">•</text><text fill="black" style="font-size:10px; font-family:Courier" x="136.5" y="248">•</text><text fill="black" style="font-size:10px; font-family:Courier" x="152.5" y="248">•</text><rect fill="#FF5454" height="16" width="16" x="164" y="236" /><text fill="black" style="font-size:15px; font-family:Courier" x="167" y="249">A</text><text fill="black" style="font-size:10px; font-family:Courier" x="184.5" y="248">•</text><text fill="black" style="font-size:10px; font-family:Courier" x="200.5" y="248">•</text><rect fill="#FF5454" height="16" width="16" x="212" y="236" /><text fill="black" style="font-size:15px; font-family:Courier" x="215" y="249">A</text><text fill="black" style="font-size:10px; font-family:Courier" x="232.5" y="248">•</text><text fill="black" style="font-size:10px; font-family:Courier" x="248.5" y="248">•</text><text fill="black" style="font-size:10px; font-family:Courier" x="264.5" y="248">•</text><text fill="black" style="font-size:10px; font-family:Courier" x="280.5" y="248">•</text><text fill="black" style="font-size:10px; font-family:Courier" x="296.5" y="248">•</text><text fill="black" style="font-size:10px; font-family:Courier" x="312.5" y="248">•</text><text fill="black" style="font-size:10px; font-family:Courier" x="328.5" y="248">•</text><text fill="black" style="font-size:10px; font-family:Courier" x="344.5" y="248">•</text><text fill="black" style="font-size:10px; font-family:Courier" x="360.5" y="248">•</text><text fill="black" style="font-size:10px; font-family:Courier" x="376.5" y="248">•</text><text fill="black" style="font-size:14px; font-family:Arial" x="400" y="250">10</text><text fill="black" style="font-size:14px; font-family:Arial" x="480" y="250">2</text><text fill="black" style="font-size:14px; font-family:courier" x="560" y="250">chr7:73927432-73927451</text><text fill="black" style="font-size:10px; font-family:Courier" x="24.5" y="264">•</text><text fill="black" style="font-size:10px; font-family:Courier" x="40.5" y="264">•</text><text fill="black" style="font-size:10px; font-family:Courier" x="56.5" y="264">•</text><text fill="black" style="font-size:10px; font-family:Courier" x="72.5" y="264">•</text><text fill="black" style="font-size:10px; font-family:Courier" x="88.5" y="264">•</text><text fill="black" style="font-size:10px; font-family:Courier" x="104.5" y="264">•</text><text fill="black" style="font-size:10px; font-family:Courier" x="120.5" y="264">•</text><text fill="black" style="font-size:10px; font-family:Courier" x="136.5" y="264">•</text><rect fill="#F5F500" height="16" width="16" x="148" y="252" /><text fill="black" style="font-size:15px; font-family:Courier" x="151" y="265">G</text><text fill="black" style="font-size:10px; font-family:Courier" x="168.5" y="264">•</text><text fill="black" style="font-size:10px; font-family:Courier" x="184.5" y="264">•</text><text fill="black" style="font-size:10px; font-family:Courier" x="200.5" y="264">•</text><text fill="black" style="font-size:10px; font-family:Courier" x="216.5" y="264">•</text><text fill="black" style="font-size:10px; font-family:Courier" x="232.5" y="264">•</text><text fill="black" style="font-size:10px; font-family:Courier" x="248.5" y="264">•</text><text fill="black" style="font-size:10px; font-family:Courier" x="264.5" y="264">•</text><text fill="black" style="font-size:10px; font-family:Courier" x="280.5" y="264">•</text><text fill="black" style="font-size:10px; font-family:Courier" x="296.5" y="264">•</text><text fill="black" style="font-size:10px; font-family:Courier" x="312.5" y="264">•</text><text fill="black" style="font-size:10px; font-family:Courier" x="328.5" y="264">•</text><text fill="black" style="font-size:10px; font-family:Courier" x="344.5" y="264">•</text><text fill="black" style="font-size:10px; font-family:Courier" x="360.5" y="264">•</text><text fill="black" style="font-size:10px; font-family:Courier" x="376.5" y="264">•</text><text fill="black" style="font-size:14px; font-family:Arial" x="400" y="266">8</text><text fill="black" style="font-size:14px; font-family:Arial" x="480" y="266">1</text><text fill="black" style="font-size:14px; font-family:courier" x="560" y="266">chr11:99649767-99649786</text><text fill="black" style="font-size:10px; font-family:Courier" x="24.5" y="280">•</text><text fill="black" style="font-size:10px; font-family:Courier" x="40.5" y="280">•</text><text fill="black" style="font-size:10px; font-family:Courier" x="56.5" y="280">•</text><text fill="black" style="font-size:10px; font-family:Courier" x="72.5" y="280">•</text><text fill="black" style="font-size:10px; font-family:Courier" x="88.5" y="280">•</text><text fill="black" style="font-size:10px; font-family:Courier" x="104.5" y="280">•</text><text fill="black" style="font-size:10px; font-family:Courier" x="120.5" y="280">•</text><text fill="black" style="font-size:10px; font-family:Courier" x="136.5" y="280">•</text><text fill="black" style="font-size:10px; font-family:Courier" x="152.5" y="280">•</text><rect fill="#26A8FF" height="16" width="16" x="164" y="268" /><text fill="black" style="font-size:15px; font-family:Courier" x="167" y="281">C</text><text fill="black" style="font-size:10px; font-family:Courier" x="184.5" y="280">•</text><text fill="black" style="font-size:10px; font-family:Courier" x="200.5" y="280">•</text><text fill="black" style="font-size:10px; font-family:Courier" x="216.5" y="280">•</text><text fill="black" style="font-size:10px; font-family:Courier" x="232.5" y="280">•</text><text fill="black" style="font-size:10px; font-family:Courier" x="248.5" y="280">•</text><text fill="black" style="font-size:10px; font-family:Courier" x="264.5" y="280">•</text><text fill="black" style="font-size:10px; font-family:Courier" x="280.5" y="280">•</text><text fill="black" style="font-size:10px; font-family:Courier" x="296.5" y="280">•</text><text fill="black" style="font-size:10px; font-family:Courier" x="312.5" y="280">•</text><text fill="black" style="font-size:10px; font-family:Courier" x="328.5" y="280">•</text><text fill="black" style="font-size:10px; font-family:Courier" x="344.5" y="280">•</text><text fill="black" style="font-size:10px; font-family:Courier" x="360.5" y="280">•</text><text fill="black" style="font-size:10px; font-family:Courier" x="376.5" y="280">•</text><text fill="black" style="font-size:14px; font-family:Arial" x="400" y="282">7</text><text fill="black" style="font-size:14px; font-family:Arial" x="480" y="282">1</text><text fill="black" style="font-size:14px; font-family:courier" x="560" y="282">chr6:87111979-87111998</text><text fill="black" style="font-size:10px; font-family:Courier" x="24.5" y="296">•</text><text fill="black" style="font-size:10px; font-family:Courier" x="40.5" y="296">•</text><text fill="black" style="font-size:10px; font-family:Courier" x="56.5" y="296">•</text><text fill="black" style="font-size:10px; font-family:Courier" x="72.5" y="296">•</text><text fill="black" style="font-size:10px; font-family:Courier" x="88.5" y="296">•</text><text fill="black" style="font-size:10px; font-family:Courier" x="104.5" y="296">•</text><text fill="black" style="font-size:10px; font-family:Courier" x="120.5" y="296">•</text><text fill="black" style="font-size:10px; font-family:Courier" x="136.5" y="296">•</text><text fill="black" style="font-size:10px; font-family:Courier" x="152.5" y="296">•</text><rect fill="#FF5454" height="16" width="16" x="164" y="284" /><text fill="black" style="font-size:15px; font-family:Courier" x="167" y="297">A</text><text fill="black" style="font-size:10px; font-family:Courier" x="184.5" y="296">•</text><text fill="black" style="font-size:10px; font-family:Courier" x="200.5" y="296">•</text><rect fill="#FF5454" height="16" width="16" x="212" y="284" /><text fill="black" style="font-size:15px; font-family:Courier" x="215" y="297">A</text><text fill="black" style="font-size:10px; font-family:Courier" x="232.5" y="296">•</text><text fill="black" style="font-size:10px; font-family:Courier" x="248.5" y="296">•</text><text fill="black" style="font-size:10px; font-family:Courier" x="264.5" y="296">•</text><text fill="black" style="font-size:10px; font-family:Courier" x="280.5" y="296">•</text><text fill="black" style="font-size:10px; font-family:Courier" x="296.5" y="296">•</text><text fill="black" style="font-size:10px; font-family:Courier" x="312.5" y="296">•</text><text fill="black" style="font-size:10px; font-family:Courier" x="328.5" y="296">•</text><text fill="black" style="font-size:10px; font-family:Courier" x="344.5" y="296">•</text><rect fill="#FF5454" height="16" width="16" x="356" y="284" /><text fill="black" style="font-size:15px; font-family:Courier" x="359" y="297">A</text><text fill="black" style="font-size:10px; font-family:Courier" x="376.5" y="296">•</text><text fill="black" style="font-size:14px; font-family:Arial" x="400" y="298">7</text><text fill="black" style="font-size:14px; font-family:Arial" x="480" y="298">2</text><text fill="black" style="font-size:14px; font-family:courier" x="560" y="298">chr8:111258957-111258976</text><text fill="black" style="font-size:10px; font-family:Courier" x="24.5" y="312">•</text><text fill="black" style="font-size:10px; font-family:Courier" x="40.5" y="312">•</text><text fill="black" style="font-size:10px; font-family:Courier" x="56.5" y="312">•</text><text fill="black" style="font-size:10px; font-family:Courier" x="72.5" y="312">•</text><text fill="black" style="font-size:10px; font-family:Courier" x="88.5" y="312">•</text><text fill="black" style="font-size:10px; font-family:Courier" x="104.5" y="312">•</text><text fill="black" style="font-size:10px; font-family:Courier" x="120.5" y="312">•</text><text fill="black" style="font-size:10px; font-family:Courier" x="136.5" y="312">•</text><text fill="black" style="font-size:10px; font-family:Courier" x="152.5" y="312">•</text><text fill="black" style="font-size:10px; font-family:Courier" x="168.5" y="312">•</text><text fill="black" style="font-size:10px; font-family:Courier" x="184.5" y="312">•</text><text fill="black" style="font-size:10px; font-family:Courier" x="200.5" y="312">•</text><rect fill="#FF5454" height="16" width="16" x="212" y="300" /><text fill="black" style="font-size:15px; font-family:Courier" x="215" y="313">A</text><text fill="black" style="font-size:10px; font-family:Courier" x="232.5" y="312">•</text><text fill="black" style="font-size:10px; font-family:Courier" x="248.5" y="312">•</text><text fill="black" style="font-size:10px; font-family:Courier" x="264.5" y="312">•</text><text fill="black" style="font-size:10px; font-family:Courier" x="280.5" y="312">•</text><text fill="black" style="font-size:10px; font-family:Courier" x="296.5" y="312">•</text><text fill="black" style="font-size:10px; font-family:Courier" x="312.5" y="312">•</text><text fill="black" style="font-size:10px; font-family:Courier" x="328.5" y="312">•</text><text fill="black" style="font-size:10px; font-family:Courier" x="344.5" y="312">•</text><rect fill="#FF5454" height="16" width="16" x="356" y="300" /><text fill="black" style="font-size:15px; font-family:Courier" x="359" y="313">A</text><text fill="black" style="font-size:10px; font-family:Courier" x="376.5" y="312">•</text><text fill="black" style="font-size:14px; font-family:Arial" x="400" y="314">5</text><text fill="black" style="font-size:14px; font-family:Arial" x="480" y="314">1</text><text fill="black" style="font-size:14px; font-family:courier" x="560" y="314">chr9:59036031-59036050</text><text fill="black" style="font-size:10px; font-family:Courier" x="24.5" y="328">•</text><text fill="black" style="font-size:10px; font-family:Courier" x="40.5" y="328">•</text><text fill="black" style="font-size:10px; font-family:Courier" x="56.5" y="328">•</text><text fill="black" style="font-size:10px; font-family:Courier" x="72.5" y="328">•</text><text fill="black" style="font-size:10px; font-family:Courier" x="88.5" y="328">•</text><text fill="black" style="font-size:10px; font-family:Courier" x="104.5" y="328">•</text><text fill="black" style="font-size:10px; font-family:Courier" x="120.5" y="328">•</text><text fill="black" style="font-size:10px; font-family:Courier" x="136.5" y="328">•</text><text fill="black" style="font-size:10px; font-family:Courier" x="152.5" y="328">•</text><rect fill="#FF5454" height="16" width="16" x="164" y="316" /><text fill="black" style="font-size:15px; font-family:Courier" x="167" y="329">A</text><text fill="black" style="font-size:10px; font-family:Courier" x="184.5" y="328">•</text><text fill="black" style="font-size:10px; font-family:Courier" x="200.5" y="328">•</text><rect fill="#FF5454" height="16" width="16" x="212" y="316" /><text fill="black" style="font-size:15px; font-family:Courier" x="215" y="329">A</text><text fill="black" style="font-size:10px; font-family:Courier" x="232.5" y="328">•</text><text fill="black" style="font-size:10px; font-family:Courier" x="248.5" y="328">•</text><text fill="black" style="font-size:10px; font-family:Courier" x="264.5" y="328">•</text><text fill="black" style="font-size:10px; font-family:Courier" x="280.5" y="328">•</text><text fill="black" style="font-size:10px; font-family:Courier" x="296.5" y="328">•</text><text fill="black" style="font-size:10px; font-family:Courier" x="312.5" y="328">•</text><text fill="black" style="font-size:10px; font-family:Courier" x="328.5" y="328">•</text><text fill="black" style="font-size:10px; font-family:Courier" x="344.5" y="328">•</text><rect fill="#FF5454" height="16" width="16" x="356" y="316" /><text fill="black" style="font-size:15px; font-family:Courier" x="359" y="329">A</text><text fill="black" style="font-size:10px; font-family:Courier" x="376.5" y="328">•</text><text fill="black" style="font-size:14px; font-family:Arial" x="400" y="330">5</text><text fill="black" style="font-size:14px; font-family:Arial" x="480" y="330">2</text><text fill="black" style="font-size:14px; font-family:courier" x="560" y="330">chrX:57326729-57326748</text><text fill="black" style="font-size:10px; font-family:Courier" x="24.5" y="344">•</text><text fill="black" style="font-size:10px; font-family:Courier" x="40.5" y="344">•</text><text fill="black" style="font-size:10px; font-family:Courier" x="56.5" y="344">•</text><text fill="black" style="font-size:10px; font-family:Courier" x="72.5" y="344">•</text><text fill="black" style="font-size:10px; font-family:Courier" x="88.5" y="344">•</text><rect fill="#00D118" height="16" width="16" x="100" y="332" /><text fill="black" style="font-size:15px; font-family:Courier" x="103" y="345">T</text><text fill="black" style="font-size:10px; font-family:Courier" x="120.5" y="344">•</text><text fill="black" style="font-size:10px; font-family:Courier" x="136.5" y="344">•</text><text fill="black" style="font-size:10px; font-family:Courier" x="152.5" y="344">•</text><rect fill="#FF5454" height="16" width="16" x="164" y="332" /><text fill="black" style="font-size:15px; font-family:Courier" x="167" y="345">A</text><text fill="black" style="font-size:10px; font-family:Courier" x="184.5" y="344">•</text><text fill="black" style="font-size:10px; font-family:Courier" x="200.5" y="344">•</text><text fill="black" style="font-size:10px; font-family:Courier" x="216.5" y="344">•</text><text fill="black" style="font-size:10px; font-family:Courier" x="232.5" y="344">•</text><text fill="black" style="font-size:10px; font-family:Courier" x="248.5" y="344">•</text><text fill="black" style="font-size:10px; font-family:Courier" x="264.5" y="344">•</text><text fill="black" style="font-size:10px; font-family:Courier" x="280.5" y="344">•</text><text fill="black" style="font-size:10px; font-family:Courier" x="296.5" y="344">•</text><text fill="black" style="font-size:10px; font-family:Courier" x="312.5" y="344">•</text><rect fill="#FF5454" height="16" width="16" x="324" y="332" /><text fill="black" style="font-size:15px; font-family:Courier" x="327" y="345">A</text><text fill="black" style="font-size:10px; font-family:Courier" x="344.5" y="344">•</text><text fill="black" style="font-size:10px; font-family:Courier" x="360.5" y="344">•</text><text fill="black" style="font-size:10px; font-family:Courier" x="376.5" y="344">•</text><text fill="black" style="font-size:14px; font-family:Arial" x="400" y="346">5</text><text fill="black" style="font-size:14px; font-family:Arial" x="480" y="346">3</text><text fill="black" style="font-size:14px; font-family:courier" x="560" y="346">chr7:19749232-19749251</text></svg>